<svg width="23" height="18" viewBox="0 0 23 18" fill="none" xmlns="http://www.w3.org/2000/svg">
  <path d="M19.4693 1.4937C17.979 0.789329 16.4053 0.288395 14.7883 0.00367703C14.7737 0.000539664 14.7585 0.00242158 14.745 0.00903275C14.7315 0.0156439 14.7206 0.0266175 14.7138 0.0402624C14.4993 0.438956 14.3047 0.848574 14.1307 1.26754C12.3882 0.994825 10.6155 0.994825 8.87306 1.26754C8.69834 0.847206 8.50041 0.43745 8.28025 0.0402624C8.27346 0.0266175 8.26248 0.0156439 8.24902 0.00903275C8.23555 0.00242158 8.22035 0.000539664 8.20574 0.00367703C6.58894 0.289248 5.01533 0.790148 3.52475 1.4937C3.51786 1.4956 3.51142 1.49895 3.50585 1.50353C3.50028 1.50811 3.49568 1.51382 3.49236 1.52031C0.512077 6.09348 -0.304261 10.5536 0.0941896 14.9604C0.0976568 14.9828 0.109228 15.003 0.126584 15.017C1.86138 16.3408 3.80234 17.353 5.86687 18.0103C5.8814 18.0149 5.89694 18.0148 5.91142 18.0101C5.92589 18.0053 5.93861 17.9961 5.94785 17.9837C6.3941 17.3603 6.78854 16.6994 7.12701 16.0081C7.13179 15.9988 7.13457 15.9886 7.13517 15.9782C7.13577 15.9677 7.13418 15.9572 7.13049 15.9475C7.1268 15.9377 7.12111 15.9288 7.11381 15.9215C7.1065 15.9142 7.09774 15.9086 7.08813 15.905C6.46901 15.6597 5.86905 15.3661 5.29349 15.027C5.28346 15.0199 5.27526 15.0105 5.2696 14.9995C5.26393 14.9885 5.26097 14.9762 5.26097 14.9638C5.26097 14.9513 5.26393 14.939 5.2696 14.928C5.27526 14.917 5.28346 14.9076 5.29349 14.9006L5.64982 14.6145C5.66073 14.6067 5.67374 14.6024 5.68708 14.6024C5.70041 14.6024 5.71342 14.6067 5.72433 14.6145C7.53278 15.4857 9.50588 15.9373 11.5035 15.9373C13.5011 15.9373 15.4742 15.4857 17.2826 14.6145C17.2937 14.6071 17.3067 14.6031 17.3199 14.6031C17.3331 14.6031 17.3461 14.6071 17.3571 14.6145C17.4738 14.7143 17.5936 14.8108 17.7135 14.9039C17.7235 14.9109 17.7317 14.9203 17.7374 14.9314C17.743 14.9424 17.746 14.9546 17.746 14.9671C17.746 14.9795 17.743 14.9918 17.7374 15.0028C17.7317 15.0138 17.7235 15.0233 17.7135 15.0303C17.1402 15.373 16.5399 15.6656 15.9188 15.905C15.9094 15.9093 15.901 15.9155 15.8939 15.9232C15.8868 15.9309 15.8813 15.94 15.8777 15.9499C15.8741 15.9598 15.8724 15.9703 15.8728 15.9809C15.8732 15.9915 15.8756 16.0018 15.88 16.0114C16.226 16.6934 16.6189 17.3492 17.0559 17.9737C17.0651 17.9861 17.0778 17.9953 17.0923 18.0001C17.1068 18.0048 17.1223 18.0049 17.1369 18.0004C19.2054 17.3456 21.1499 16.3333 22.8869 15.007C22.896 15.0009 22.9034 14.9925 22.9085 14.9826C22.9136 14.9727 22.9162 14.9616 22.916 14.9505C23.3905 10.1997 22.1781 5.43286 19.5017 1.52696C19.4991 1.51924 19.4948 1.51222 19.4892 1.50645C19.4836 1.50069 19.4768 1.49632 19.4693 1.4937ZM7.68743 12.2797C6.55363 12.2797 5.62067 11.2088 5.62067 9.89836C5.62067 8.58793 6.53419 7.51366 7.68743 7.51366C8.84067 7.51366 9.77039 8.59126 9.75419 9.89503C9.73799 11.1988 8.83743 12.2797 7.68743 12.2797ZM15.3293 12.2797C14.1955 12.2797 13.2625 11.2088 13.2625 9.89836C13.2625 8.58793 14.176 7.51366 15.3293 7.51366C16.4825 7.51366 17.4122 8.59126 17.396 9.89503C17.3798 11.1988 16.489 12.2797 15.3293 12.2797Z" fill="currentColor"/>
</svg>
