<svg width="1386" height="1033" viewBox="0 0 1386 1033" fill="none" xmlns="http://www.w3.org/2000/svg">
<path d="M93.8444 -5.92264L693 -351.845L1292.16 -5.92264V685.923L693 1031.85L93.8444 685.923V-5.92264Z" stroke="#282828" stroke-width="2"/>
<path d="M295.628 124.577L693 -104.845L1090.37 124.577V583.423L693 812.845L295.628 583.423V124.577Z" stroke="#282828" stroke-width="2"/>
<path d="M410.877 190.327L693.5 27.1547L976.123 190.327V516.673L693.5 679.845L410.877 516.673V190.327Z" stroke="#282828" stroke-width="2"/>
<path d="M524.326 255.827L693.5 158.155L862.674 255.827V451.173L693.5 548.845L524.326 451.173V255.827Z" stroke="#282828" stroke-width="2"/>
<path d="M194.303 66.0774L693 -221.845L1191.7 66.0774V641.923L693 929.845L194.303 641.923V66.0774Z" stroke="#282828" stroke-width="2"/>
</svg>
