<svg width="22" height="22" viewBox="0 0 22 22" fill="none" xmlns="http://www.w3.org/2000/svg">
  <path d="M10.9998 0.000329398C8.01239 0.000329398 7.6378 0.0129925 6.46456 0.0665238C5.29377 0.119924 4.49416 0.305886 3.79448 0.577778C3.07115 0.858883 2.45773 1.235 1.8462 1.84651C1.23469 2.45801 0.858569 3.07149 0.577468 3.79481C0.305562 4.49448 0.119612 5.29408 0.0661765 6.46487C0.0126537 7.63811 0 8.0127 0 11.0001C0 13.9874 0.0126537 14.362 0.0661765 15.5352C0.119616 16.706 0.305562 17.5056 0.577468 18.2053C0.858569 18.9286 1.23469 19.542 1.8462 20.1536C2.45773 20.7651 3.07115 21.1412 3.79448 21.4223C4.49416 21.6942 5.29377 21.8802 6.46456 21.9336C7.6378 21.9871 8.01239 21.9998 10.9998 21.9998C13.9871 21.9998 14.3617 21.9871 15.5349 21.9336C16.7057 21.8802 17.5053 21.6942 18.205 21.4223C18.9283 21.1412 19.5418 20.7651 20.1533 20.1536C20.7648 19.542 21.1409 18.9286 21.422 18.2053C21.6939 17.5056 21.8799 16.706 21.9333 15.5352C21.9868 14.362 21.9995 13.9874 21.9995 11.0001C21.9995 8.0127 21.9868 7.63811 21.9333 6.46487C21.8799 5.29408 21.6939 4.49448 21.422 3.79481C21.1409 3.07149 20.7648 2.45801 20.1533 1.84651C19.5418 1.235 18.9283 0.858883 18.205 0.577778C17.5053 0.305886 16.7057 0.119924 15.5349 0.0665238C14.3617 0.0129925 13.9871 0.000329398 10.9998 0.000329398ZM10.9998 1.98226C13.9368 1.98226 14.2847 1.99348 15.4446 2.0464C16.517 2.0953 17.0995 2.2745 17.4871 2.42514C18.0005 2.62468 18.3669 2.86304 18.7518 3.24793C19.1368 3.63287 19.3751 3.99929 19.5747 4.51273C19.7253 4.90033 19.9045 5.48275 19.9534 6.55522C20.0063 7.71509 20.0176 8.063 20.0176 11.0001C20.0176 13.9371 20.0063 14.285 19.9534 15.4449C19.9045 16.5173 19.7253 17.0998 19.5747 17.4874C19.3751 18.0008 19.1368 18.3672 18.7518 18.7521C18.3669 19.1371 18.0005 19.3754 17.4871 19.575C17.0995 19.7256 16.517 19.9048 15.4446 19.9537C14.2849 20.0066 13.937 20.0178 10.9998 20.0178C8.06247 20.0178 7.71465 20.0066 6.5549 19.9537C5.48244 19.9048 4.90001 19.7256 4.51241 19.575C3.99896 19.3754 3.63255 19.1371 3.24765 18.7521C2.86274 18.3672 2.62435 18.0008 2.42481 17.4874C2.27417 17.0998 2.095 16.5173 2.04606 15.4449C1.99314 14.285 1.98193 13.9371 1.98193 11.0001C1.98193 8.063 1.99314 7.71509 2.04606 6.55522C2.095 5.48275 2.27417 4.90033 2.42481 4.51273C2.62435 3.99929 2.86273 3.63286 3.24763 3.24797C3.63255 2.86303 3.99896 2.62468 4.51241 2.42514C4.90001 2.2745 5.48244 2.0953 6.5549 2.0464C7.71478 1.99348 8.06269 1.98226 10.9998 1.98226Z" fill="currentColor"/>
  <path d="M11.0001 14.6668C8.97506 14.6668 7.33349 13.0252 7.33349 11.0002C7.33349 8.97516 8.97506 7.33359 11.0001 7.33359C13.0251 7.33359 14.6666 8.97516 14.6666 11.0002C14.6666 13.0252 13.0251 14.6668 11.0001 14.6668V14.6668ZM11.0001 5.35166C7.88046 5.35166 5.35156 7.88056 5.35156 11.0002C5.35156 14.1198 7.88046 16.6487 11.0001 16.6487C14.1197 16.6487 16.6486 14.1198 16.6486 11.0002C16.6486 7.88056 14.1197 5.35166 11.0001 5.35166ZM18.1917 5.12849C18.1917 5.8575 17.6007 6.44844 16.8717 6.44844C16.1428 6.44844 15.5518 5.8575 15.5518 5.12849C15.5518 4.39949 16.1428 3.8085 16.8717 3.8085C17.6007 3.8085 18.1917 4.39949 18.1917 5.12849" fill="currentColor"/>
</svg>
