<svg width="604" height="632" viewBox="0 0 604 632" fill="none" xmlns="http://www.w3.org/2000/svg">
<g opacity="0.8" filter="url(#filter0_f_767_3)">
<ellipse cx="301.966" cy="316" rx="77.9661" ry="92" fill="#F15A29"/>
</g>
<path d="M77.6372 176.577L307 44.1547L536.363 176.577V441.423L307 573.845L77.6372 441.423V176.577Z" stroke="#282828" stroke-width="2"/>
<path d="M326.979 388.07C314.852 348.627 273.231 356.406 244.466 361.782C239.176 362.771 234.308 363.68 230.021 364.224C216.907 365.886 206.47 363.39 199.691 358.549C195.923 355.858 193.265 352.439 191.875 348.59C190.48 344.728 190.371 340.461 191.709 336.091C193.931 328.818 200.182 321.255 211.197 314.864L213.012 317.992C202.852 323.887 197.139 330.692 195.169 337.139C194.066 340.744 194.146 344.236 195.278 347.373C196.417 350.522 198.63 353.348 201.788 355.604C207.883 359.957 217.425 362.182 229.567 360.643C233.653 360.125 238.515 359.216 243.799 358.229C273.863 352.61 317.361 344.481 330.438 387.01L326.979 388.07Z" fill="#666666"/>
<path d="M304.172 325.863V333.873H304.182C304.179 333.94 304.174 334.009 304.172 334.078V334.099C304.172 343.228 316.899 350.627 332.599 350.627C348.298 350.627 361.023 343.228 361.023 334.099C361.023 334.023 361.016 333.948 361.013 333.873H361.023V325.863H304.172Z" fill="#C2461D"/>
<path d="M337.551 350.378C342.933 349.828 347.793 348.398 351.676 346.353V325.864H337.551V350.378Z" fill="#F15A29"/>
<path d="M304.172 325.978C304.172 335.106 316.899 342.505 332.599 342.505C348.298 342.505 361.023 335.106 361.023 325.978C361.023 316.849 348.298 309.45 332.599 309.45C316.899 309.45 304.172 316.849 304.172 325.978Z" fill="#D16F13"/>
<path d="M357.858 333.563C359.881 331.291 361.023 328.712 361.023 325.978C361.023 316.849 348.298 309.45 332.599 309.45C321.997 309.45 312.752 312.824 307.865 317.827L357.858 333.563Z" fill="#F7941D"/>
<path fill-rule="evenodd" clip-rule="evenodd" d="M304.172 326.656V326.666V326.675V326.679V326.684V326.689V326.699V326.708V326.718C304.172 336.381 316.898 344.215 332.596 344.215C348.297 344.215 361.023 336.382 361.023 326.718V326.708V326.699V326.689V326.684C361.023 326.529 360.998 326.377 360.983 326.226V326.223L360.981 326.199V326.196L360.979 326.186V326.183V326.178V326.174L360.978 326.168V326.164V326.158V326.156V326.149V326.146L360.977 326.139V326.138V326.13V326.128V326.12V326.11C360.453 334.971 347.967 342.065 332.6 342.065C317.235 342.065 304.749 334.971 304.224 326.11V326.119V326.126V326.127V326.134V326.136V326.143V326.145L304.222 326.151V326.154V326.16V326.163V326.169V326.173L304.221 326.178V326.181V326.186V326.191V326.195L304.219 326.217V326.22L304.216 326.245V326.246C304.195 326.382 304.175 326.518 304.172 326.656Z" fill="#F7941D"/>
<path d="M353.847 326.01V325.999V325.988V325.979C353.847 319.154 344.333 313.622 332.597 313.622C320.863 313.622 311.349 319.154 311.349 325.979C311.349 326.03 311.351 326.082 311.354 326.134C311.351 326.212 311.349 326.292 311.349 326.37C311.349 326.585 311.385 326.797 311.407 327.011C312.002 320.719 321.248 315.717 332.597 315.717C343.949 315.717 353.193 320.719 353.788 327.011C353.808 326.808 353.843 326.605 353.846 326.4V326.39V326.379V326.37C353.846 326.289 353.844 326.21 353.841 326.129L353.847 326.01Z" fill="#D16F13"/>
<path d="M311.348 326.397C311.348 332.296 320.863 337.077 332.599 337.077C344.335 337.077 353.848 332.296 353.848 326.397C353.848 320.497 344.335 315.715 332.599 315.715C320.861 315.715 311.348 320.497 311.348 326.397Z" fill="#F7941D"/>
<path d="M351.278 331.492C352.917 329.978 353.847 328.242 353.847 326.397C353.847 320.497 344.333 315.715 332.597 315.715C325.48 315.715 319.18 317.475 315.323 320.174L351.278 331.492Z" fill="#F7941D"/>
<path d="M289.785 426.695C292.926 414.113 305.268 417.066 332.522 400.108C359.788 383.15 354.173 376.012 375.267 373.52C396.357 371.025 450.233 387.441 454.472 400.583C458.714 413.726 409.572 415.12 385.679 429.984C361.789 444.853 361.924 473.942 339.508 472.104C317.099 470.265 286.648 439.279 289.785 426.695Z" fill="#075252"/>
<path d="M449.414 379.896C464.171 394.806 453.374 405.428 453.374 405.428L435.882 392.12L443.328 383.573C443.328 383.573 445.934 376.386 449.414 379.896Z" fill="#075252"/>
<path d="M289.768 405.704C280.348 420.532 294.054 440.419 294.054 440.419L302.87 424.237C302.87 424.237 303.249 410.91 289.768 405.704Z" fill="#075252"/>
<path d="M295.303 404.572L292.76 402.504L292.346 399.175C292.346 399.175 307.084 395.814 310.689 395.368L312.772 397.059C305.072 400.452 299.315 402.276 295.303 404.572Z" fill="#075252"/>
<path d="M294.888 401.242L292.345 399.174C294.31 397.4 296.884 395.833 300.04 394.576C303.201 393.322 306.669 392.486 310.275 392.04L312.358 393.731C304.657 397.124 298.9 398.948 294.888 401.242Z" fill="#007A7A"/>
<path d="M346.561 376.095L343.543 374.931L343.128 371.601C345.093 369.674 351.792 365.232 354.688 363.977L358.326 365.383C354.73 367.888 351.921 371.388 346.561 376.095Z" fill="#075252"/>
<path d="M346.147 372.771L343.128 371.604C343.698 369.452 344.938 367.358 346.899 365.432C348.853 363.5 351.378 361.904 354.274 360.653L357.912 362.055C354.316 364.563 351.507 368.061 346.147 372.771Z" fill="#007A7A"/>
<path d="M287.756 410.381C290.898 397.799 303.24 400.753 330.493 383.793C357.758 366.835 352.143 359.695 373.237 357.203C387.604 355.505 417.189 362.58 435.927 371.421C444.696 375.557 451.089 380.078 452.442 384.269C456.685 397.412 407.543 398.803 383.649 413.668C359.758 428.533 359.894 457.623 337.479 455.784C315.068 453.95 284.618 422.962 287.756 410.381Z" fill="#009C9C"/>
<path d="M366.305 386.273C376.918 392.239 392.958 392.456 402.122 386.753C411.281 381.055 410.104 371.596 399.492 365.629C388.877 359.663 372.84 359.445 363.675 365.144C354.513 370.847 355.69 380.307 366.305 386.273Z" fill="#007A7A"/>
<path d="M301.074 426.445C311.69 432.412 327.728 432.627 336.889 426.928C346.056 421.227 344.875 411.77 334.26 405.802C323.646 399.833 307.61 399.618 298.446 405.319C289.284 411.021 290.461 420.479 301.074 426.445Z" fill="#007A7A"/>
<g opacity="0.3">
<g opacity="0.3">
<path opacity="0.3" d="M333.062 413.715C335.862 411.97 335.503 409.088 332.259 407.261C329.02 405.447 324.126 405.382 321.325 407.114C318.529 408.854 318.888 411.741 322.129 413.568C325.372 415.391 330.266 415.457 333.062 413.715Z" fill="#121214"/>
</g>
</g>
<path d="M319.9 406.888L322.897 407.926C325.122 406.96 328.293 406.985 330.792 407.987L333.614 407.003L334.033 410.373C334.126 411.381 333.594 412.388 332.378 413.137C329.894 414.68 325.548 414.621 322.668 413.007C321.263 412.217 320.468 411.197 320.323 410.189H320.31L319.9 406.888Z" fill="#D16F13"/>
<path d="M331.97 409.873C334.447 408.325 334.128 405.765 331.257 404.146C328.383 402.531 324.034 402.472 321.547 404.015C319.066 405.558 319.385 408.122 322.26 409.742C325.141 411.355 329.488 411.414 331.97 409.873Z" fill="#F7941D"/>
<path d="M393.472 386.915L402.479 381.313L392.538 375.726L401.124 370.386L390.681 364.52L382.102 369.86L372.161 364.273L363.159 369.876L373.098 375.463L364.519 380.801L374.948 386.665L383.535 381.327L393.472 386.915Z" fill="black"/>
<path d="M365.504 380.805L365.049 377.14L374.078 375.475L364.145 369.888L363.69 366.223L382.16 370.441L399.651 366.708L400.107 370.373L391.53 375.71L401.01 377.625L401.465 381.29L393.376 386.321L383.441 380.737L374.869 386.072L365.504 380.805Z" fill="#D16F13"/>
<path d="M365.049 377.14L373.622 371.808L363.69 366.223L371.773 361.195L381.703 366.776L390.278 361.443L399.651 366.708L391.073 372.042L401.009 377.624L392.919 382.653L382.985 377.076L374.414 382.404L365.049 377.14Z" fill="#F7941D"/>
<g opacity="0.3">
<g opacity="0.3">
<path opacity="0.3" d="M312.612 413.438C315.409 411.695 315.05 408.81 311.808 406.985C308.57 405.173 303.677 405.107 300.872 406.839C298.074 408.577 298.434 411.466 301.676 413.291C304.922 415.117 309.816 415.182 312.612 413.438Z" fill="#121214"/>
</g>
</g>
<path d="M299.448 406.614L302.445 407.652C304.673 406.686 307.844 406.711 310.339 407.713L313.164 406.729L313.583 410.097C313.677 411.105 313.14 412.111 311.931 412.865C309.442 414.408 305.097 414.349 302.218 412.734C300.812 411.944 300.019 410.922 299.876 409.913H299.859L299.448 406.614Z" fill="#D16F13"/>
<path d="M311.523 409.597C314.001 408.049 313.681 405.491 310.809 403.874C307.93 402.256 303.584 402.198 301.096 403.743C298.615 405.286 298.934 407.847 301.808 409.467C304.692 411.084 309.037 411.143 311.523 409.597Z" fill="#F7941D"/>
<g opacity="0.3">
<g opacity="0.3">
<path opacity="0.3" d="M314.083 425.488C316.88 423.743 316.521 420.861 313.279 419.038C310.042 417.218 305.149 417.153 302.35 418.891C299.549 420.626 299.91 423.515 303.153 425.341C306.394 427.163 311.289 427.229 314.083 425.488Z" fill="#121214"/>
</g>
</g>
<path d="M300.927 418.665L303.924 419.703C306.149 418.738 309.32 418.762 311.814 419.766L314.641 418.78L315.06 422.147C315.151 423.157 314.619 424.163 313.404 424.915C310.922 426.459 306.572 426.401 303.699 424.785C302.288 423.995 301.497 422.974 301.351 421.963H301.338L300.927 418.665Z" fill="#D16F13"/>
<path d="M312.996 421.649C315.473 420.101 315.155 417.545 312.283 415.923C309.41 414.308 305.06 414.25 302.578 415.792C300.089 417.335 300.408 419.897 303.291 421.518C306.165 423.134 310.516 423.192 312.996 421.649Z" fill="#F7941D"/>
<g opacity="0.3">
<g opacity="0.3">
<path opacity="0.3" d="M334.568 425.78C337.363 424.035 337.005 421.153 333.766 419.33C330.523 417.512 325.633 417.447 322.835 419.184C320.031 420.919 320.391 423.807 323.637 425.633C326.879 427.456 331.767 427.522 334.568 425.78Z" fill="#121214"/>
</g>
</g>
<path d="M321.401 418.954L324.4 419.99C326.628 419.026 329.796 419.052 332.298 420.056L335.118 419.07L335.537 422.439C335.632 423.444 335.097 424.451 333.882 425.203C331.4 426.749 327.053 426.69 324.172 425.073C322.765 424.283 321.974 423.26 321.829 422.255H321.811L321.401 418.954Z" fill="#D16F13"/>
<path d="M333.475 421.94C335.952 420.392 335.634 417.833 332.762 416.213C329.889 414.595 325.541 414.537 323.053 416.083C320.571 417.629 320.89 420.19 323.766 421.81C326.647 423.425 330.995 423.483 333.475 421.94Z" fill="#F7941D"/>
<path d="M226.779 352.379L285.808 318.131L285.822 312.813L226.788 347.082L226.779 352.379Z" fill="#535359"/>
<path d="M226.787 347.083L285.82 312.814L262.521 299.017L203.495 333.264L226.787 347.083Z" fill="#666666"/>
<path d="M203.495 333.265L203.483 338.577L226.778 352.38L226.787 347.083L203.495 333.265Z" fill="#303033"/>
<path d="M238.939 330.452L257.952 319.413L258.173 279.454L239.166 290.494L238.939 330.452Z" fill="#535359"/>
<path d="M239.165 290.494L229.241 284.95L229.126 324.789L238.937 330.451L239.165 290.494Z" fill="#303033"/>
<path d="M179.389 222.783L179.023 335.863C179.021 336.977 178.629 337.746 177.997 338.107C224.786 310.963 271.576 283.814 318.357 256.67C318.988 256.308 319.38 255.522 319.38 254.423L319.752 141.344L179.389 222.783Z" fill="#535359"/>
<path d="M302.986 257.792C302.986 258.71 303.674 259.062 304.521 258.573L310.294 255.214C311.131 254.728 311.82 253.584 311.82 252.663C311.825 251.743 311.146 251.395 310.299 251.88L304.521 255.238C303.674 255.729 302.986 256.872 302.986 257.792Z" fill="#009C9C"/>
<path d="M185.173 227.024L184.869 318.155L312.906 243.76L313.213 152.618L185.173 227.024Z" fill="#303033"/>
<path d="M316.259 135.296C315.28 134.729 314.397 134.683 313.756 135.045L173.401 216.497C174.036 216.124 174.918 216.18 175.894 216.737C177.832 217.858 179.394 220.571 179.39 222.782L319.752 141.343C319.757 139.12 318.187 136.405 316.259 135.296Z" fill="#666666"/>
<path d="M175.893 216.739C177.831 217.86 179.392 220.573 179.386 222.784L179.021 335.863C179.018 338.09 177.438 338.984 175.508 337.875C173.558 336.747 172.003 334.049 172.005 331.827L172.379 218.748C172.386 216.524 173.951 215.628 175.893 216.739Z" fill="#303033"/>
<path fill-rule="evenodd" clip-rule="evenodd" d="M195.234 295.056L307.585 229.586V242.84L195.234 308.308V295.056Z" fill="#C2461D"/>
<path fill-rule="evenodd" clip-rule="evenodd" d="M192.766 296.494L310.054 228.15V223.625L192.766 291.969V296.494Z" fill="#F7941D"/>
<path fill-rule="evenodd" clip-rule="evenodd" d="M235.223 233.214L284.299 204.618V215.763L235.223 244.359V233.214Z" fill="#C2461D"/>
<path fill-rule="evenodd" clip-rule="evenodd" d="M225.786 238.713L285.377 203.989V200.183L225.786 234.907V238.713Z" fill="#F7941D"/>
<path fill-rule="evenodd" clip-rule="evenodd" d="M203.583 247.847L207.567 245.524V283.345L203.583 285.668V247.847Z" fill="#C2461D"/>
<path fill-rule="evenodd" clip-rule="evenodd" d="M221.801 237.23L225.786 234.907V272.728L221.801 275.05V237.23Z" fill="#C2461D"/>
<path fill-rule="evenodd" clip-rule="evenodd" d="M203.584 274.271L225.786 261.333V265.051L203.584 277.988V274.271Z" fill="#C2461D"/>
<path fill-rule="evenodd" clip-rule="evenodd" d="M203.583 262.31L225.785 249.372V253.088L203.583 266.027V262.31Z" fill="#C2461D"/>
<path fill-rule="evenodd" clip-rule="evenodd" d="M203.583 250.349L225.785 237.411V241.128L203.583 254.066V250.349Z" fill="#C2461D"/>
<path fill-rule="evenodd" clip-rule="evenodd" d="M288.672 227.056C284.687 229.379 281.456 234.014 281.456 237.407C281.456 238.449 281.761 239.252 282.298 239.8L302.116 228.252C302.336 227.595 302.455 226.958 302.455 226.365C302.455 224.662 301.468 223.731 299.955 223.692C300.243 222.929 300.402 222.186 300.402 221.503C300.402 218.704 297.737 217.987 294.451 219.902C291.684 221.514 289.359 224.477 288.692 227.044L288.672 227.056Z" fill="#D16F13"/>
<path fill-rule="evenodd" clip-rule="evenodd" d="M246.756 222.689L270.288 208.975V198.551L246.756 212.264V222.689Z" fill="#075252"/>
<path fill-rule="evenodd" clip-rule="evenodd" d="M266.493 211.186L270.856 208.644V198.22L266.493 200.762V211.186Z" fill="#007A7A"/>
<path fill-rule="evenodd" clip-rule="evenodd" d="M246.187 223.018L250.549 220.477V210.051L246.187 212.594V223.018Z" fill="#007A7A"/>
<path fill-rule="evenodd" clip-rule="evenodd" d="M256.341 210.397L260.704 207.855V204.137L256.341 206.68V210.397Z" fill="#007A7A"/>
<path fill-rule="evenodd" clip-rule="evenodd" d="M245.045 245.828L252.083 241.728V243.823L245.828 247.468C245.398 247.719 245.047 247.452 245.047 246.876V245.828H245.045Z" fill="#D16F13"/>
<path fill-rule="evenodd" clip-rule="evenodd" d="M252.084 243.825L246.822 246.891V248.666C246.822 249.642 247.418 250.093 248.148 249.668L252.084 247.376V243.825Z" fill="#666666"/>
<path fill-rule="evenodd" clip-rule="evenodd" d="M253.108 247.48L245.933 251.662V256.187C245.933 256.228 245.958 256.247 245.99 256.229L253.108 252.081V247.48Z" fill="#666666"/>
<path fill-rule="evenodd" clip-rule="evenodd" d="M248.84 253.011L245.933 254.705V258.945C245.933 258.98 245.954 258.996 245.98 258.981L248.84 257.315V253.011Z" fill="#666666"/>
<path fill-rule="evenodd" clip-rule="evenodd" d="M253.064 250.552L250.122 252.266V256.506C250.122 256.541 250.144 256.558 250.17 256.542L253.064 254.856V250.552V250.552Z" fill="#666666"/>
<path fill-rule="evenodd" clip-rule="evenodd" d="M246.8 250.625L243.859 252.339V254.923C243.859 254.947 243.872 254.958 243.89 254.947L246.8 253.251V250.625Z" fill="#666666"/>
<path fill-rule="evenodd" clip-rule="evenodd" d="M254.579 248.861L251.637 250.575V253.158C251.637 253.183 251.652 253.193 251.669 253.183L254.579 251.486V248.861V248.861Z" fill="#666666"/>
<path fill-rule="evenodd" clip-rule="evenodd" d="M248.84 258.385L245.493 260.335V259.281C245.493 259.271 245.499 259.26 245.507 259.256L248.84 257.313V258.385V258.385Z" fill="#666666"/>
<path fill-rule="evenodd" clip-rule="evenodd" d="M253.064 255.926L249.719 257.876V256.822C249.719 256.813 249.725 256.802 249.732 256.798L253.065 254.856V255.926H253.064Z" fill="#666666"/>
<path fill-rule="evenodd" clip-rule="evenodd" d="M253.108 252.566L245.933 256.747V255.793C245.933 255.785 245.938 255.775 245.945 255.772L253.108 251.598V252.566Z" fill="#999999"/>
<path fill-rule="evenodd" clip-rule="evenodd" d="M246.801 251.637L241.978 254.448V253.494C241.978 253.486 241.983 253.476 241.99 253.472L246.801 250.668V251.637Z" fill="#999999"/>
<path fill-rule="evenodd" clip-rule="evenodd" d="M206.252 224.714L213.949 220.229C213.943 220.152 213.939 220.073 213.939 219.992C213.939 217.858 215.989 214.919 218.494 213.46L225.896 209.146C228.402 207.686 230.451 208.238 230.451 210.371C230.451 210.455 230.447 210.54 230.441 210.627C232.819 209.363 234.721 209.95 234.721 212.004C234.721 214.138 232.672 217.078 230.166 218.537L225.518 221.246C224.549 221.81 223.648 222.073 222.908 222.061C222.167 222.937 221.267 223.723 220.299 224.287L206.255 232.47C203.75 233.93 201.7 233.379 201.7 231.245C201.698 229.113 203.748 226.173 206.252 224.714Z" fill="#535359"/>
<path fill-rule="evenodd" clip-rule="evenodd" d="M275.81 184.86L277.057 184.133C276.865 183.855 276.759 183.493 276.759 183.052C276.759 181.103 278.808 178.315 281.314 176.856L284.35 175.087C286.856 173.627 288.905 174.026 288.905 175.975C288.905 176.417 288.8 176.9 288.608 177.403L289.854 176.676C292.36 175.216 294.409 175.615 294.409 177.564C294.409 179.513 292.36 182.301 289.854 183.76L275.81 191.943C273.304 193.404 271.255 193.004 271.255 191.056C271.255 189.107 273.304 186.319 275.81 184.86Z" fill="#535359"/>
<path d="M241.628 364.981V372.991H241.637C241.635 373.058 241.63 373.127 241.628 373.195V373.217C241.628 382.346 254.355 389.744 270.054 389.744C285.754 389.744 298.479 382.346 298.479 373.217C298.479 373.141 298.471 373.065 298.469 372.991H298.479V364.981H241.628Z" fill="#C2461D"/>
<path d="M275.007 389.494C280.388 388.945 285.249 387.514 289.132 385.469V364.981H275.007V389.494Z" fill="#F15A29"/>
<path d="M241.628 365.095C241.628 374.224 254.355 381.623 270.054 381.623C285.754 381.623 298.479 374.224 298.479 365.095C298.479 355.966 285.754 348.567 270.054 348.567C254.355 348.567 241.628 355.966 241.628 365.095Z" fill="#D16F13"/>
<path d="M295.314 372.68C297.337 370.408 298.479 367.829 298.479 365.095C298.479 355.966 285.754 348.567 270.054 348.567C259.453 348.567 250.207 351.943 245.321 356.944L295.314 372.68Z" fill="#F7941D"/>
<path fill-rule="evenodd" clip-rule="evenodd" d="M241.628 365.773V365.783V365.791V365.796V365.801V365.806V365.815V365.825V365.835C241.628 375.497 254.353 383.33 270.052 383.33C285.753 383.33 298.479 375.497 298.479 365.835V365.825V365.815V365.806V365.801C298.479 365.646 298.454 365.494 298.439 365.343V365.34L298.437 365.316V365.312L298.436 365.303V365.299V365.294V365.291L298.435 365.285V365.281V365.275V365.273V365.266V365.263L298.433 365.256V365.255V365.246V365.245V365.237V365.227C297.909 374.087 285.423 381.182 270.056 381.182C254.692 381.182 242.205 374.087 241.68 365.227V365.235V365.243V365.244V365.251V365.252V365.26V365.262L241.679 365.268V365.27V365.276V365.28V365.286V365.29L241.678 365.294V365.298V365.303V365.308V365.311L241.675 365.334V365.337L241.673 365.361V365.362C241.651 365.498 241.632 365.635 241.628 365.773Z" fill="#F7941D"/>
<path d="M291.302 365.125V365.114V365.103V365.092C291.302 358.268 281.788 352.735 270.052 352.735C258.318 352.735 248.804 358.267 248.804 365.092C248.804 365.144 248.806 365.195 248.809 365.247C248.806 365.325 248.804 365.405 248.804 365.483C248.804 365.698 248.84 365.91 248.862 366.124C249.457 359.832 258.703 354.83 270.052 354.83C281.404 354.83 290.648 359.832 291.243 366.124C291.263 365.921 291.298 365.719 291.301 365.513V365.503V365.493V365.483C291.301 365.402 291.299 365.323 291.296 365.242L291.302 365.125Z" fill="#D16F13"/>
<path d="M248.804 365.513C248.804 371.412 258.318 376.194 270.054 376.194C281.79 376.194 291.304 371.412 291.304 365.513C291.304 359.613 281.79 354.832 270.054 354.832C258.317 354.833 248.804 359.614 248.804 365.513Z" fill="#F7941D"/>
<path d="M288.734 370.609C290.373 369.094 291.303 367.359 291.303 365.513C291.303 359.613 281.789 354.832 270.053 354.832C262.936 354.832 256.636 356.59 252.78 359.291L288.734 370.609Z" fill="#F7941D"/>
<path d="M241.185 354.793V362.803H241.194C241.192 362.871 241.187 362.939 241.185 363.008V363.03C241.185 372.158 253.912 379.557 269.611 379.557C285.311 379.557 298.036 372.158 298.036 363.03C298.036 362.954 298.029 362.878 298.026 362.803H298.036V354.793H241.185Z" fill="#C2461D"/>
<path d="M274.563 379.307C279.945 378.757 284.806 377.327 288.688 375.282V354.793H274.563V379.307Z" fill="#F15A29"/>
<path d="M241.185 354.906C241.185 364.035 253.912 371.434 269.611 371.434C285.311 371.434 298.036 364.035 298.036 354.906C298.036 345.777 285.309 338.378 269.611 338.378C253.912 338.378 241.185 345.777 241.185 354.906Z" fill="#D16F13"/>
<path d="M294.869 362.491C296.892 360.219 298.034 357.64 298.034 354.906C298.034 345.777 285.308 338.378 269.61 338.378C259.009 338.378 249.763 341.754 244.877 346.755L294.869 362.491Z" fill="#F7941D"/>
<path fill-rule="evenodd" clip-rule="evenodd" d="M241.185 355.586V355.596V355.604V355.609V355.614V355.618V355.628V355.638V355.647C241.185 365.31 253.911 373.143 269.609 373.143C285.309 373.143 298.036 365.31 298.036 355.647V355.638V355.628V355.618V355.614C298.036 355.458 298.01 355.307 297.996 355.155V355.153L297.993 355.129V355.125L297.992 355.116V355.112V355.107V355.104L297.991 355.098V355.094V355.088V355.086V355.078V355.076L297.99 355.069V355.067V355.059V355.058V355.049V355.04C297.466 363.9 284.979 370.995 269.612 370.995C254.248 370.995 241.762 363.9 241.236 355.04V355.048V355.055V355.057V355.064V355.065V355.072V355.075L241.235 355.081V355.083V355.089V355.093V355.099V355.102L241.234 355.107V355.111V355.116V355.12V355.124L241.232 355.147V355.149L241.229 355.173V355.175C241.207 355.312 241.188 355.449 241.185 355.586Z" fill="#F7941D"/>
<path d="M290.859 354.936V354.925V354.914V354.905C290.859 348.079 281.345 342.547 269.609 342.547C257.875 342.547 248.361 348.079 248.361 354.905C248.361 354.956 248.363 355.008 248.365 355.06C248.363 355.138 248.361 355.217 248.361 355.296C248.361 355.511 248.397 355.723 248.418 355.937C249.014 349.644 258.259 344.643 269.609 344.643C280.96 344.643 290.205 349.644 290.801 355.937C290.821 355.733 290.855 355.531 290.859 355.326V355.316V355.305V355.296C290.859 355.215 290.857 355.136 290.854 355.055L290.859 354.936Z" fill="#D16F13"/>
<path d="M248.359 355.326C248.359 361.225 257.874 366.007 269.61 366.007C281.346 366.007 290.859 361.225 290.859 355.326C290.859 349.426 281.346 344.645 269.61 344.645C257.874 344.645 248.359 349.426 248.359 355.326Z" fill="#F7941D"/>
<path d="M288.29 360.422C289.928 358.908 290.858 357.172 290.858 355.327C290.858 349.426 281.345 344.645 269.609 344.645C262.492 344.645 256.191 346.405 252.335 349.104L288.29 360.422Z" fill="#F7941D"/>
<path d="M240.844 345.278V353.288H240.853C240.851 353.355 240.846 353.423 240.844 353.492V353.514C240.844 362.642 253.571 370.041 269.27 370.041C284.969 370.041 297.694 362.642 297.694 353.514C297.694 353.438 297.687 353.362 297.685 353.288H297.694V345.278H240.844Z" fill="#C2461D"/>
<path d="M274.222 369.791C279.604 369.241 284.465 367.811 288.347 365.766V345.278H274.222V369.791Z" fill="#F15A29"/>
<path d="M240.843 345.391C240.843 354.52 253.57 361.919 269.27 361.919C284.969 361.919 297.694 354.52 297.694 345.391C297.694 336.263 284.968 328.864 269.27 328.864C253.57 328.865 240.843 336.264 240.843 345.391Z" fill="#D16F13"/>
<path d="M294.529 352.977C296.552 350.704 297.694 348.125 297.694 345.391C297.694 336.263 284.968 328.864 269.27 328.864C258.668 328.864 249.423 332.239 244.536 337.241L294.529 352.977Z" fill="#F7941D"/>
<path fill-rule="evenodd" clip-rule="evenodd" d="M240.844 346.07V346.08V346.088V346.093V346.098V346.103V346.112V346.122V346.131C240.844 355.794 253.57 363.627 269.268 363.627C284.968 363.627 297.694 355.794 297.694 346.131V346.122V346.112V346.103V346.098C297.694 345.943 297.669 345.791 297.655 345.639V345.637L297.652 345.613V345.609L297.651 345.6V345.596V345.591V345.588L297.65 345.582V345.578V345.572V345.57V345.562V345.56L297.649 345.553V345.552V345.543V345.542V345.534V345.524C297.125 354.384 284.638 361.479 269.271 361.479C253.907 361.479 241.421 354.384 240.895 345.524V345.532V345.54V345.541V345.548V345.549V345.556V345.559L240.894 345.565V345.567V345.573V345.577V345.583V345.586L240.893 345.591V345.595V345.6V345.605V345.608L240.89 345.631V345.633L240.888 345.657V345.659C240.868 345.796 240.847 345.933 240.844 346.07Z" fill="#F7941D"/>
<path d="M290.518 345.421V345.411V345.4V345.389C290.518 338.564 281.004 333.032 269.268 333.032C257.534 333.032 248.02 338.564 248.02 345.389C248.02 345.441 248.022 345.492 248.025 345.544C248.022 345.622 248.02 345.702 248.02 345.78C248.02 345.995 248.056 346.207 248.078 346.421C248.673 340.129 257.919 335.127 269.268 335.127C280.619 335.127 289.864 340.129 290.459 346.421C290.478 346.218 290.513 346.016 290.517 345.81V345.8V345.789V345.78C290.517 345.699 290.515 345.62 290.512 345.539L290.518 345.421Z" fill="#D16F13"/>
<path d="M248.02 345.81C248.02 351.709 257.534 356.491 269.27 356.491C281.006 356.491 290.519 351.709 290.519 345.81C290.519 339.91 281.006 335.129 269.27 335.129C257.534 335.129 248.02 339.91 248.02 345.81Z" fill="#F7941D"/>
<path d="M287.95 350.906C289.588 349.391 290.518 347.656 290.518 345.811C290.518 339.91 281.005 335.129 269.269 335.129C262.151 335.129 255.851 336.888 251.995 339.588L287.95 350.906Z" fill="#F7941D"/>
<path d="M303.797 316.512V324.522H303.807C303.805 324.589 303.8 324.658 303.797 324.726V324.748C303.797 333.877 316.525 341.276 332.224 341.276C347.923 341.276 360.648 333.877 360.648 324.748C360.648 324.672 360.641 324.597 360.639 324.522H360.648V316.512H303.797Z" fill="#C2461D"/>
<path d="M337.176 341.025C342.558 340.476 347.418 339.046 351.301 337.001V316.512H337.176V341.025Z" fill="#F15A29"/>
<path d="M303.798 316.626C303.798 325.754 316.525 333.153 332.225 333.153C347.924 333.153 360.649 325.754 360.649 316.626C360.649 307.497 347.923 300.098 332.225 300.098C316.525 300.099 303.798 307.498 303.798 316.626Z" fill="#D16F13"/>
<path d="M357.482 324.211C359.505 321.939 360.647 319.36 360.647 316.626C360.647 307.497 347.921 300.098 332.223 300.098C321.622 300.098 312.376 303.473 307.49 308.475L357.482 324.211Z" fill="#F7941D"/>
<path fill-rule="evenodd" clip-rule="evenodd" d="M303.797 317.305V317.315V317.323V317.328V317.333V317.338V317.347V317.357V317.367C303.797 327.029 316.524 334.863 332.222 334.863C347.922 334.863 360.648 327.029 360.648 317.367V317.357V317.347V317.338V317.333C360.648 317.178 360.624 317.026 360.609 316.875V316.872L360.606 316.848V316.845L360.605 316.835V316.831V316.827V316.823L360.604 316.817V316.813V316.807V316.805V316.798V316.795L360.603 316.788V316.787V316.779V316.777V316.769V316.759C360.078 325.62 347.592 332.714 332.225 332.714C316.861 332.714 304.374 325.62 303.849 316.759V316.768V316.775V316.776V316.783V316.785V316.792V316.794L303.848 316.8V316.803V316.809V316.812V316.818V316.822L303.847 316.827V316.83V316.835V316.84V316.843L303.844 316.866V316.869L303.842 316.894V316.895C303.82 317.03 303.801 317.167 303.797 317.305Z" fill="#F7941D"/>
<path d="M353.472 316.658V316.649V316.638V316.627C353.472 309.803 343.958 304.27 332.222 304.27C320.488 304.27 310.974 309.802 310.974 316.627C310.974 316.679 310.976 316.731 310.979 316.782C310.976 316.861 310.974 316.94 310.974 317.018C310.974 317.233 311.01 317.445 311.032 317.659C311.627 311.367 320.873 306.365 332.222 306.365C343.574 306.365 352.818 311.367 353.413 317.659C353.433 317.456 353.468 317.254 353.471 317.049V317.04V317.029V317.019C353.471 316.939 353.469 316.859 353.466 316.78L353.472 316.658Z" fill="#D16F13"/>
<path d="M310.972 317.045C310.972 322.944 320.487 327.725 332.223 327.725C343.959 327.725 353.472 322.944 353.472 317.045C353.472 311.145 343.959 306.363 332.223 306.363C320.487 306.363 310.972 311.146 310.972 317.045Z" fill="#F7941D"/>
<path d="M350.903 322.14C352.542 320.626 353.472 318.89 353.472 317.045C353.472 311.145 343.958 306.363 332.223 306.363C325.105 306.363 318.805 308.123 314.949 310.822L350.903 322.14Z" fill="#F7941D"/>
<path d="M190.648 400.012V408.022H190.657C190.655 408.09 190.65 408.158 190.648 408.227V408.248C190.648 417.377 203.375 424.776 219.074 424.776C234.774 424.776 247.499 417.377 247.499 408.248C247.499 408.173 247.491 408.097 247.489 408.022H247.499V400.012H190.648Z" fill="#C2461D"/>
<path d="M224.025 424.526C229.406 423.976 234.267 422.546 238.149 420.501V400.012H224.025V424.526Z" fill="#F15A29"/>
<path d="M190.648 400.126C190.648 409.254 203.375 416.653 219.074 416.653C234.774 416.653 247.499 409.254 247.499 400.126C247.499 390.997 234.774 383.598 219.074 383.598C203.374 383.598 190.648 390.997 190.648 400.126Z" fill="#D16F13"/>
<path d="M244.332 407.711C246.354 405.439 247.497 402.86 247.497 400.126C247.497 390.997 234.772 383.598 219.072 383.598C208.471 383.598 199.225 386.973 194.339 391.975L244.332 407.711Z" fill="#F7941D"/>
<path fill-rule="evenodd" clip-rule="evenodd" d="M190.648 400.808V400.818V400.826V400.831V400.836V400.841V400.85V400.86V400.87C190.648 410.532 203.374 418.366 219.072 418.366C234.772 418.366 247.499 410.532 247.499 400.87V400.86V400.85V400.841V400.836C247.499 400.681 247.475 400.529 247.459 400.378V400.375L247.456 400.351V400.348L247.455 400.338V400.334V400.33V400.326L247.454 400.32V400.316V400.31V400.308V400.301V400.298L247.453 400.291V400.29V400.281V400.28V400.272V400.262C246.929 409.123 234.442 416.217 219.076 416.217C203.711 416.217 191.225 409.123 190.7 400.262V400.271V400.278V400.279V400.286V400.287V400.295V400.297L190.698 400.303V400.306V400.312V400.315V400.321V400.325L190.697 400.33V400.333V400.338V400.343V400.346L190.695 400.369V400.372L190.692 400.396V400.397C190.671 400.533 190.651 400.67 190.648 400.808Z" fill="#F7941D"/>
<path d="M240.32 400.159V400.148V400.137V400.127C240.32 393.303 230.806 387.769 219.07 387.769C207.337 387.769 197.822 393.301 197.822 400.127C197.822 400.178 197.824 400.23 197.827 400.282C197.824 400.36 197.822 400.439 197.822 400.517C197.822 400.733 197.858 400.944 197.88 401.159C198.475 394.866 207.721 389.865 219.07 389.865C230.422 389.865 239.666 394.866 240.261 401.159C240.281 400.955 240.316 400.753 240.319 400.548V400.538V400.527V400.517C240.319 400.437 240.317 400.357 240.314 400.277L240.32 400.159Z" fill="#D16F13"/>
<path d="M197.822 400.545C197.822 406.444 207.336 411.226 219.072 411.226C230.808 411.226 240.321 406.444 240.321 400.545C240.321 394.645 230.808 389.864 219.072 389.864C207.336 389.865 197.822 394.646 197.822 400.545Z" fill="#F7941D"/>
<path d="M237.753 405.641C239.391 404.126 240.321 402.391 240.321 400.545C240.321 394.645 230.808 389.864 219.072 389.864C211.955 389.864 205.654 391.622 201.798 394.323L237.753 405.641Z" fill="#F7941D"/>
<path d="M202.012 368.019C203.962 368.472 205.175 370.42 204.72 372.367C204.266 374.315 202.316 375.526 200.365 375.071L171.14 368.208C169.189 367.754 167.976 365.807 168.43 363.859C168.885 361.912 170.835 360.7 172.785 361.155L202.012 368.019Z" fill="#F7941D"/>
<path d="M342.375 267.485C341.842 269.408 339.849 270.536 337.921 270.006C335.995 269.474 334.865 267.483 335.396 265.559L339.326 251.442C339.858 249.518 341.852 248.39 343.779 248.921C345.706 249.452 346.836 251.443 346.304 253.368L342.375 267.485Z" fill="#F7941D"/>
<path d="M373.567 301.361C371.836 302.353 369.626 301.758 368.632 300.029C367.638 298.301 368.234 296.094 369.965 295.101L402.36 276.488C404.091 275.496 406.302 276.091 407.296 277.819C408.29 279.547 407.693 281.754 405.962 282.748L373.567 301.361Z" fill="#F7941D"/>
<path d="M168.155 436.611C166.392 437.556 164.195 436.897 163.248 435.138C162.301 433.38 162.961 431.184 164.723 430.239L178.12 423.018C179.882 422.073 182.079 422.732 183.026 424.49C183.973 426.25 183.313 428.444 181.552 429.39L168.155 436.611Z" fill="#F7941D"/>
<path d="M240.652 335.348V343.358H240.661C240.659 343.426 240.654 343.494 240.652 343.563V343.585C240.652 352.713 253.379 360.112 269.079 360.112C284.778 360.112 297.503 352.713 297.503 343.585C297.503 343.509 297.496 343.433 297.493 343.358H297.503V335.348H240.652Z" fill="#C2461D"/>
<path d="M274.031 359.862C279.412 359.312 284.273 357.882 288.156 355.837V335.348H274.031V359.862Z" fill="#F15A29"/>
<path d="M240.652 335.462C240.652 344.59 253.379 351.989 269.079 351.989C284.778 351.989 297.503 344.59 297.503 335.462C297.503 326.333 284.777 318.934 269.079 318.934C253.379 318.935 240.652 326.334 240.652 335.462Z" fill="#D16F13"/>
<path d="M294.338 343.047C296.361 340.775 297.503 338.196 297.503 335.462C297.503 326.333 284.777 318.934 269.079 318.934C258.477 318.934 249.232 322.309 244.345 327.311L294.338 343.047Z" fill="#F7941D"/>
<path fill-rule="evenodd" clip-rule="evenodd" d="M240.652 336.144V336.154V336.162V336.167V336.172V336.177V336.186V336.196V336.206C240.652 345.868 253.378 353.702 269.076 353.702C284.776 353.702 297.503 345.868 297.503 336.206V336.196V336.186V336.177V336.172C297.503 336.017 297.477 335.865 297.463 335.714V335.711L297.46 335.687V335.684L297.459 335.674V335.67V335.666V335.662L297.458 335.656V335.652V335.646V335.644V335.637V335.634L297.457 335.627V335.626V335.617V335.616V335.608V335.598C296.933 344.459 284.446 351.553 269.079 351.553C253.715 351.553 241.229 344.459 240.703 335.598V335.607V335.614V335.615V335.622V335.623V335.631V335.633L240.702 335.639V335.641V335.647V335.651V335.657V335.661L240.701 335.666V335.669V335.674V335.679V335.682L240.699 335.705V335.708L240.696 335.732V335.733C240.674 335.869 240.655 336.006 240.652 336.144Z" fill="#F7941D"/>
<path d="M290.326 335.494V335.485V335.474V335.463C290.326 328.639 280.811 323.106 269.075 323.106C257.342 323.106 247.827 328.638 247.827 335.463C247.827 335.515 247.83 335.567 247.832 335.618C247.83 335.697 247.827 335.776 247.827 335.854C247.827 336.069 247.864 336.281 247.885 336.495C248.48 330.203 257.726 325.201 269.075 325.201C280.427 325.201 289.672 330.203 290.268 336.495C290.287 336.292 290.322 336.09 290.326 335.885V335.876V335.865V335.855C290.326 335.775 290.323 335.695 290.321 335.616L290.326 335.494Z" fill="#D16F13"/>
<path d="M247.828 335.882C247.828 341.781 257.343 346.562 269.079 346.562C280.814 346.562 290.328 341.781 290.328 335.882C290.328 329.982 280.814 325.2 269.079 325.2C257.343 325.2 247.828 329.982 247.828 335.882Z" fill="#F7941D"/>
<path d="M287.758 340.977C289.397 339.463 290.327 337.727 290.327 335.882C290.327 329.982 280.813 325.2 269.078 325.2C261.96 325.2 255.66 326.96 251.804 329.66L287.758 340.977Z" fill="#F7941D"/>
<defs>
<filter id="filter0_f_767_3" x="0" y="0" width="603.932" height="632" filterUnits="userSpaceOnUse" color-interpolation-filters="sRGB">
<feFlood flood-opacity="0" result="BackgroundImageFix"/>
<feBlend mode="normal" in="SourceGraphic" in2="BackgroundImageFix" result="shape"/>
<feGaussianBlur stdDeviation="112" result="effect1_foregroundBlur_767_3"/>
</filter>
</defs>
</svg>
