<svg width="604" height="632" viewBox="0 0 604 632" fill="none" xmlns="http://www.w3.org/2000/svg">
<g opacity="0.8" filter="url(#filter0_f_403_2)">
<ellipse cx="301.966" cy="316" rx="77.9661" ry="92" fill="#F15A29"/>
</g>
<path d="M77.6372 176.577L307 44.1547L536.363 176.577V441.423L307 573.845L77.6372 441.423V176.577Z" stroke="#282828" stroke-width="2"/>
<g clip-path="url(#clip0_403_2)">
<path d="M368.231 384.23L289.794 429.811C282.865 433.84 271.597 433.84 264.621 429.814L207.179 396.649C203.664 394.621 201.908 391.955 201.916 389.296L201.863 401.531C201.857 404.189 203.613 406.855 207.126 408.884L264.57 442.05C271.546 446.079 282.814 446.075 289.743 442.05L368.18 396.467C371.622 394.465 373.347 391.85 373.353 389.227L373.403 376.993C373.398 379.614 371.672 382.23 368.231 384.23Z" fill="#303033"/>
<path d="M368.148 369.648C375.124 373.674 375.16 380.201 368.231 384.226L289.795 429.81C282.865 433.836 271.597 433.836 264.623 429.81L207.178 396.645C200.203 392.619 200.154 386.081 207.082 382.056L285.519 336.471C292.448 332.446 303.729 332.456 310.703 336.481L368.148 369.648Z" fill="#666666"/>
<path d="M282.434 417.336L224.148 384.449L231.225 325.332L275.328 350.962L282.434 417.336Z" fill="#535359"/>
<path d="M275.328 350.96L231.226 325.33L340.419 262.289L384.521 287.915L275.328 350.96Z" fill="#717171"/>
<path d="M379.173 294.618L361.392 312.531C341.383 324.087 346.105 357.491 346.17 380.495L282.435 417.334L275.328 350.96L379.173 294.618Z" fill="#303033"/>
<path d="M389.4 269.782L389.36 284.355L357.411 316.542L357.45 301.97L389.4 269.782Z" fill="#343433"/>
<path d="M357.451 301.968L357.411 316.541L281.803 360.479L281.843 345.907L357.451 301.968Z" fill="#303033"/>
<path d="M281.843 345.907L281.803 360.48L225.939 328.229L225.979 313.653L281.843 345.907Z" fill="#535359"/>
<path d="M389.4 269.782L357.45 301.97L281.843 345.905L225.978 313.654L301.588 269.717L357.051 251.105L389.4 269.782Z" fill="#666666"/>
<path d="M251.165 330.838C245.26 327.427 239.91 327.105 236.042 329.342L181.486 379.509C181.185 379.683 181 380.054 181 380.583C181 381.641 181.742 382.922 182.654 383.453C183.001 383.651 183.301 383.675 183.566 383.62C183.585 383.656 259.465 383.098 259.465 383.098C259.592 383.11 259.712 383.101 259.836 383.11L261.048 383.144C267.882 382.958 272.553 377.408 272.553 367.888C272.553 354.245 262.98 337.659 251.165 330.838Z" fill="#666666"/>
<path d="M181.982 381.212C182.153 382.159 182.781 383.167 183.566 383.618C183.91 383.819 184.214 383.84 184.478 383.788C184.497 383.825 259.466 383.098 259.466 383.098C259.593 383.108 259.711 383.101 259.838 383.108L261.05 383.144C267.879 382.959 272.555 377.409 272.555 367.884C272.555 364.969 272.095 361.92 271.294 358.859L181.982 381.212Z" fill="#45454A"/>
<path d="M282.35 421.658C285.058 423.222 285.058 425.76 282.35 427.325C279.638 428.889 275.244 428.889 272.536 427.325C269.824 425.76 269.824 423.222 272.536 421.658C275.245 420.093 279.638 420.093 282.35 421.658Z" fill="#303033"/>
<path d="M218.692 386.201C221.401 387.766 221.401 390.304 218.692 391.868C215.981 393.433 211.587 393.433 208.878 391.868C206.167 390.304 206.167 387.766 208.878 386.201C211.588 384.636 215.981 384.636 218.692 386.201Z" fill="#303033"/>
<path d="M343.403 394.839C346.114 396.404 346.114 398.942 343.403 400.506C340.691 402.071 336.297 402.071 333.589 400.506C330.877 398.942 330.877 396.404 333.589 394.839C336.298 393.274 340.691 393.274 343.403 394.839Z" fill="#535359"/>
<path d="M308.442 268.709L294.132 280.42C293.18 281.196 291.623 281.653 289.968 281.64L265.073 281.411C265.029 281.408 264.986 281.414 264.941 281.414L259.899 276.372V283.267V284.059V290.954L259.997 291.009C259.925 291.658 260.226 292.337 261.006 292.936L274.774 303.569L272.24 307.917L268.559 307.315V314.21V314.458C268.509 314.697 268.505 314.934 268.559 315.161V315.293V321.354C268.509 321.593 268.505 321.829 268.559 322.057V322.189L268.595 322.171C269.093 323.825 272.081 325.047 275.18 324.444L298.73 319.872C300.296 319.568 302.026 319.728 303.354 320.306L323.354 328.936C326.705 330.381 331.443 328.993 331.378 326.587L331.21 320.496C331.325 320.245 331.384 319.975 331.378 319.692L331.15 311.424C331.448 310.778 332.127 310.204 333.092 309.809L353.375 301.547C354.983 300.892 355.628 299.865 355.45 298.889V292.622C355.489 292.412 355.488 292.202 355.45 291.994V291.537V284.642L342.381 287.776L328.14 285.196C326.559 284.91 325.316 284.194 324.822 283.28L317.356 269.54C316.636 268.215 314.579 267.491 312.508 267.488C310.987 267.488 309.456 267.879 308.442 268.709Z" fill="#C2461D"/>
<path d="M308.442 261.118L294.133 272.829C293.181 273.605 291.624 274.062 289.969 274.046L265.074 273.82C260.908 273.782 258.502 276.517 261.006 278.45L275.956 289.998C276.951 290.766 277.229 291.764 276.703 292.667L268.783 306.268C267.456 308.543 271.238 310.726 275.181 309.958L298.733 305.386C300.298 305.083 302.027 305.244 303.355 305.819L323.356 314.45C326.706 315.894 331.445 314.509 331.38 312.101L330.984 297.726C330.959 296.772 331.748 295.873 333.095 295.323L353.378 287.063C356.774 285.676 355.923 282.636 351.941 281.918L328.142 277.608C326.56 277.319 325.319 276.602 324.824 275.689L317.358 261.951C316.638 260.623 314.581 259.898 312.51 259.898C310.987 259.896 309.456 260.288 308.442 261.118Z" fill="#F7941D"/>
<path d="M298.803 217.185C295.061 219.253 292.09 224.221 292.025 228.361L291.903 236.024C291.87 238.108 292.579 239.581 293.75 240.279L197.227 182.91C196.053 182.212 195.344 180.736 195.378 178.653L195.498 170.99C195.563 166.852 198.535 161.885 202.142 159.891C204.062 158.831 205.67 158.761 206.824 159.448L303.348 216.818C302.191 216.131 300.586 216.197 298.803 217.185Z" fill="#666666"/>
<path d="M288.718 207.132L301.578 203.338L315.945 192.08L292.023 177.852L264.797 192.905L276.951 206.95L288.718 207.132Z" fill="#009C9C"/>
<path fill-rule="evenodd" clip-rule="evenodd" d="M291.836 266.578L319.065 251.524L319.891 199.152L304.667 203.792L292.663 214.205L291.836 266.578Z" fill="#075252"/>
<path d="M288.819 207.312L288.718 207.13L288.789 207.258L288.79 207.259L288.819 207.312ZM288.928 207.511L288.859 207.385L288.928 207.511ZM289.065 207.755L288.998 207.633L288.928 207.51H288.929L288.996 207.631L289.065 207.755ZM289.098 207.815L289.065 207.755H289.066L289.098 207.815ZM290.989 211.211L290.966 211.171L290.989 211.211ZM291.254 211.685L291.215 211.614L291.254 211.685ZM292.661 214.205L291.328 211.818L291.371 211.893L291.428 211.998H291.429L291.488 212.103L292.664 214.201L294.564 213.152L319.89 199.149L319.75 198.897L319.747 198.895L319.541 198.525L319.54 198.522L319.473 198.403L319.472 198.401L319.408 198.284L319.405 198.282L319.342 198.167L319.34 198.165L319.277 198.05L319.275 198.048L319.212 197.935L319.211 197.933L319.148 197.821L319.146 197.819L319.085 197.709V197.706L319.022 197.597V197.595L318.962 197.486L318.961 197.484L318.9 197.377V197.374L318.839 197.268L318.838 197.266L318.778 197.16L318.777 197.158L318.719 197.054L318.66 196.947L318.659 196.946L318.601 196.843C317.933 195.652 317.343 194.587 316.622 193.29L316.559 193.178L316.558 193.175L316.494 193.061V193.059L316.429 192.944L316.428 192.941L316.363 192.824V192.822L316.298 192.704L316.295 192.7L316.228 192.582L316.227 192.58L316.16 192.458L316.159 192.455L316.091 192.332L316.089 192.33L315.949 192.078L296.811 202.655L288.718 207.128L264.796 192.903C263.19 193.793 262.296 194.297 260.703 195.195L259.877 247.567C261.411 250.328 262.273 251.877 263.821 254.644L287.743 268.872C289.335 267.973 290.229 267.467 291.835 266.576L292.661 214.205Z" fill="#007A7A"/>
<path d="M309.918 223.84C306.175 225.908 303.203 230.874 303.138 235.015L303.017 242.678C302.984 244.762 303.696 246.236 304.867 246.933L301.33 245.382C300.159 244.687 299.447 243.209 299.481 241.126L299.601 233.467C299.666 229.323 302.641 224.357 306.245 222.363C308.167 221.305 309.772 221.233 310.929 221.924L314.466 223.472C313.307 222.786 311.704 222.852 309.918 223.84Z" fill="#666666"/>
<path d="M316.316 227.732C316.381 223.592 313.517 221.855 309.92 223.841C306.175 225.91 303.204 230.876 303.139 235.016L303.019 242.679C302.954 246.82 305.818 248.557 309.426 246.563C313.16 244.502 316.131 239.535 316.196 235.391L316.316 227.732Z" fill="#303033"/>
<path fill-rule="evenodd" clip-rule="evenodd" d="M432.488 428.363V378.617L379.584 409.715V458.999L432.488 428.363Z" fill="#075252"/>
<path d="M326.474 378.531V428.276L379.65 459V409.717L326.474 378.531Z" fill="#007A7A"/>
<path d="M326.475 378.529L379.65 409.715L432.488 378.617L379.195 347.594L326.475 378.529Z" fill="#009C9C"/>
<path fill-rule="evenodd" clip-rule="evenodd" d="M401.844 396.792V446.059L411.567 440.732V391L401.844 396.792Z" fill="#D16F13"/>
<path d="M348.295 365.435L401.911 396.791L411.567 390.999L357.837 359.809L348.295 365.435Z" fill="#F7941D"/>
<path fill-rule="evenodd" clip-rule="evenodd" d="M348.002 391.293V441.024L357.43 446.206V396.938L348.002 391.293Z" fill="#D16F13"/>
<path d="M348.002 391.29L357.363 396.935L410.542 365.748L401.294 360.27L348.002 391.29Z" fill="#F7941D"/>
<path fill-rule="evenodd" clip-rule="evenodd" d="M395.18 358.409C387.137 362.28 378.485 374.507 378.485 374.507L387.072 379.456C387.072 379.456 396.057 374.452 403.255 370.092C405.955 368.457 408.34 364.79 407.299 362.629C405.996 359.921 402.521 357.583 398.825 357.583C397.611 357.583 396.373 357.835 395.18 358.409Z" fill="#F15A29"/>
<path d="M395.18 358.409C387.137 362.28 378.485 374.507 378.485 374.507L386.817 379.308C388.115 377.524 395.954 367.032 403.306 363.495C404.622 362.862 405.99 362.629 407.322 362.684C406.037 359.954 402.544 357.584 398.823 357.583C397.61 357.583 396.373 357.835 395.18 358.409Z" fill="#F7941D"/>
<path fill-rule="evenodd" clip-rule="evenodd" d="M360.527 357.949H360.469C356.773 357.949 353.3 360.287 351.995 362.995C350.954 365.155 353.341 368.821 356.039 370.457C363.239 374.818 372.224 379.822 372.224 379.822L380.81 374.874C380.81 374.874 372.157 362.645 364.114 358.776C362.941 358.21 361.724 357.958 360.527 357.949Z" fill="#F15A29"/>
<path d="M351.974 363.053C353.307 362.994 354.677 363.23 355.992 363.864C363.341 367.401 371.182 377.893 372.48 379.674L380.811 374.876C380.811 374.876 372.158 362.646 364.116 358.775C362.923 358.202 361.686 357.949 360.473 357.949C356.753 357.949 353.258 360.32 351.974 363.053Z" fill="#F7941D"/>
<path fill-rule="evenodd" clip-rule="evenodd" d="M385.061 377.631L377.186 382.735C377.186 382.735 391.055 390.71 394.969 392.839C398.883 394.971 402.549 392.394 406.116 389.621C409.685 386.846 404.927 379.859 397.744 377.828C395.696 377.251 393.463 377.066 391.448 377.066C387.918 377.066 385.061 377.631 385.061 377.631Z" fill="#F15A29"/>
<path d="M385.061 377.634L377.186 382.737C377.186 382.737 377.222 382.759 377.233 382.763L377.581 382.539C377.581 382.539 384.632 381.144 390.263 382.737C396.631 384.539 401.078 390.228 399.523 393.43C401.779 392.889 403.965 391.296 406.116 389.625C409.685 386.85 404.927 379.863 397.744 377.831C395.696 377.255 393.463 377.07 391.448 377.07C387.918 377.069 385.061 377.634 385.061 377.634Z" fill="#F7941D"/>
<path fill-rule="evenodd" clip-rule="evenodd" d="M379.875 375.114H379.837H379.797C378.956 375.124 378.117 375.433 377.455 376.04L375.006 378.285L379.46 381.504L384.424 377.926L382.126 375.961C381.478 375.405 380.677 375.123 379.875 375.114Z" fill="#F15A29"/>
<path fill-rule="evenodd" clip-rule="evenodd" d="M360.964 377.828C353.782 379.859 349.025 386.846 352.592 389.621C356.159 392.394 359.826 394.971 363.74 392.839C367.654 390.71 381.523 382.735 381.523 382.735L373.647 377.631C373.647 377.631 370.791 377.066 367.261 377.066C365.246 377.066 363.011 377.251 360.964 377.828Z" fill="#F15A29"/>
<path d="M360.965 377.829C353.782 379.861 349.025 386.848 352.592 389.623C354.744 391.294 356.93 392.887 359.185 393.428C357.631 390.226 362.078 384.537 368.446 382.735C374.077 381.141 381.128 382.537 381.128 382.537L381.476 382.761C381.486 382.757 381.523 382.735 381.523 382.735L373.648 377.632C373.648 377.632 370.791 377.067 367.262 377.067C365.246 377.068 363.012 377.252 360.965 377.829Z" fill="#F7941D"/>
<path d="M331.848 199.785C332.572 198.122 334.507 197.362 336.169 198.087C337.831 198.811 338.591 200.746 337.867 202.408L328.087 224.866C327.362 226.529 325.427 227.289 323.765 226.564C322.103 225.84 321.343 223.905 322.067 222.243L331.848 199.785Z" fill="#F7941D"/>
<path d="M262.081 334.043C263.296 332.701 265.37 332.598 266.712 333.811C268.054 335.026 268.158 337.1 266.944 338.442L234.434 374.373C233.22 375.716 231.146 375.819 229.803 374.605C228.461 373.391 228.357 371.317 229.571 369.975L262.081 334.043Z" fill="#F7941D"/>
<path d="M401.514 287.683C403.311 287.917 404.578 289.564 404.344 291.362C404.109 293.159 402.463 294.427 400.665 294.191L376.498 291.035C374.7 290.801 373.434 289.154 373.668 287.357C373.902 285.559 375.549 284.293 377.347 284.527L401.514 287.683Z" fill="#F7941D"/>
<path d="M237.688 269.724C239.485 269.958 240.752 271.605 240.517 273.403C240.283 275.2 238.636 276.467 236.839 276.233L212.672 273.076C210.874 272.842 209.607 271.195 209.841 269.398C210.075 267.6 211.722 266.333 213.52 266.567L237.688 269.724Z" fill="#F7941D"/>
<path d="M349.331 346.702C350.667 347.924 350.758 349.997 349.537 351.332C348.315 352.668 346.242 352.759 344.906 351.538L335.917 343.313C334.582 342.091 334.491 340.018 335.711 338.682C336.933 337.346 339.006 337.255 340.342 338.476L349.331 346.702Z" fill="#F7941D"/>
</g>
<defs>
<filter id="filter0_f_403_2" x="0" y="0" width="603.932" height="632" filterUnits="userSpaceOnUse" color-interpolation-filters="sRGB">
<feFlood flood-opacity="0" result="BackgroundImageFix"/>
<feBlend mode="normal" in="SourceGraphic" in2="BackgroundImageFix" result="shape"/>
<feGaussianBlur stdDeviation="112" result="effect1_foregroundBlur_403_2"/>
</filter>
<clipPath id="clip0_403_2">
<rect width="251.487" height="300" fill="white" transform="translate(181 159)"/>
</clipPath>
</defs>
</svg>
