<svg width="604" height="632" viewBox="0 0 604 632" fill="none" xmlns="http://www.w3.org/2000/svg">
<g opacity="0.8" filter="url(#filter0_f_403_2)">
<ellipse cx="301.966" cy="316" rx="77.9661" ry="92" fill="#F15A29"/>
</g>
<path d="M77.6372 176.577L307 44.1547L536.363 176.577V441.423L307 573.845L77.6372 441.423V176.577Z" stroke="#282828" stroke-width="2"/>
<path d="M213.775 243.21L250.611 220.478C253.182 218.892 255.528 216.118 256.886 213.063L276.321 169.283C279.185 162.833 285.432 159.111 288.735 161.033V161.026L288.814 161.081C288.971 161.177 289.124 161.278 289.266 161.4L311.168 176.868L306.01 193.571C306.83 193.739 307.766 193.685 308.785 193.369L344.598 182.249C346.507 181.657 347.992 181.938 349.007 182.8L349.01 182.796L371.302 198.49C371.302 198.49 347.428 206.07 337.458 209.132L318.858 235.277C316.85 238.1 315.763 241.324 315.95 243.9L318.648 280.805C319.124 287.293 311.978 295.737 306.557 295.096L275.723 291.446C273.57 291.192 270.861 292.453 268.477 294.823L258.935 304.305L259.107 304.416L255.42 336.804L248.162 347.555L225.457 331.565C225.452 331.56 225.448 331.557 225.443 331.554L225.358 331.493L225.363 331.488C223.827 330.441 223.098 328.204 223.83 324.988L233.542 282.3C234.22 279.32 233.633 276.875 231.971 275.763L208.173 259.827C203.99 257.026 207.299 247.205 213.775 243.21Z" fill="#C2461D"/>
<path d="M256.878 213.17L276.009 170.078L306.557 191.883L306.002 193.679C306.823 193.848 307.759 193.795 308.779 193.477L308.788 193.474L311.635 195.506L306.885 249.412L255.91 214.977C256.261 214.386 256.602 213.791 256.878 213.17Z" fill="#C2461D"/>
<path d="M225.453 331.491L225.367 331.43L225.372 331.426C223.837 330.379 223.109 328.142 223.84 324.927L232.432 287.161L258.941 305.891L255.43 336.742L248.172 347.492L225.468 331.502C225.462 331.499 225.457 331.495 225.453 331.491Z" fill="#D16F13"/>
<path d="M299.079 185.313L279.643 229.091C278.288 232.147 275.941 234.92 273.368 236.507L236.533 259.239C230.058 263.236 226.748 273.055 230.932 275.857L254.732 291.793C256.394 292.905 256.981 295.349 256.302 298.329L246.591 341.017C244.883 348.52 251.089 350.745 257.091 344.78L291.237 310.852C293.62 308.484 296.33 307.222 298.481 307.476L329.315 311.127C334.734 311.768 341.881 303.324 341.407 296.836L338.708 259.931C338.52 257.354 339.608 254.129 341.616 251.307L370.385 210.875C375.441 203.767 373.653 196.323 367.357 198.278L331.544 209.399C329.045 210.176 327.008 209.444 326.096 207.446L313.042 178.808C310.745 173.773 302.496 177.617 299.079 185.313Z" fill="#F7941D"/>
<path d="M301.649 198.56L285.661 234.577C284.545 237.09 282.615 239.372 280.5 240.677L250.193 259.377C244.867 262.664 242.144 270.743 245.585 273.048L265.166 286.158C266.534 287.072 267.016 289.084 266.459 291.534L258.469 326.652C257.064 332.826 262.17 334.656 267.107 329.75L295.198 301.836C297.159 299.888 299.388 298.849 301.158 299.059L326.526 302.062C330.986 302.589 336.862 295.641 336.472 290.306L334.252 259.945C334.096 257.826 334.99 255.173 336.643 252.851L360.31 219.588C364.47 213.741 362.998 207.618 357.82 209.225L328.358 218.374C326.301 219.013 324.624 218.413 323.875 216.768L313.136 193.208C311.248 189.067 304.46 192.231 301.649 198.56Z" fill="#F15A29"/>
<path d="M259.319 322.916L285.396 297.005C287.357 295.057 289.584 294.019 291.355 294.228L316.722 297.233C321.182 297.761 327.059 290.813 326.668 285.476L324.448 255.116C324.294 252.997 325.188 250.343 326.839 248.021L350.506 214.76C351.435 213.453 352.069 212.137 352.458 210.892L357.819 209.228C362.998 207.62 364.471 213.743 360.31 219.591L336.642 252.852C334.991 255.174 334.096 257.827 334.25 259.946L336.47 290.306C336.861 295.644 330.982 302.591 326.525 302.063L301.158 299.06C299.388 298.849 297.158 299.889 295.197 301.839L267.108 329.75C262.169 334.657 257.066 332.827 258.468 326.654L259.319 322.916ZM305.595 193.338C308.547 190.931 311.896 190.488 313.137 193.207L321.929 212.496H321.926L323.875 216.769C324.227 217.542 324.796 218.062 325.5 218.352L325.51 218.378C325.51 218.378 317.266 218.771 314.287 212.327C314.246 212.237 314.212 212.163 314.177 212.089C314.148 212.031 314.096 211.997 314.069 211.936L305.595 193.338Z" fill="#C2461D"/>
<path d="M306.28 234.936L315.408 229.559L314.693 237.679L313.895 238.148L315.797 242.516L318.727 235.301L317.93 235.771L318.645 227.651L327.765 222.277L327.05 230.397L325.434 231.348L318.442 248.574L322.989 259.082L324.606 258.129L323.89 266.249L314.77 271.623L315.486 263.503L316.283 263.032L314.375 258.64L311.451 265.88L312.248 265.409L311.533 273.53L302.405 278.907L303.121 270.786L304.723 269.843L311.736 252.525L307.166 242.111L305.563 243.055L306.28 234.936ZM294.533 275.849L296.977 248.116L290.788 251.761L288.343 279.494L294.533 275.849ZM300.015 275.971L295.855 282.769L285.507 288.865L282.236 286.444L285.3 251.679L289.463 244.842L299.728 238.795L303.076 241.206L300.015 275.971ZM269.931 298.04L270.646 289.92L272.302 288.944L274.58 263.084L272.924 264.06L273.638 255.949L277.375 251.963L281.254 249.679L278.095 285.532L279.751 284.557L279.036 292.677L269.931 298.04Z" fill="white"/>
<path fill-rule="evenodd" clip-rule="evenodd" d="M276.007 170.077L298.663 186.249L299.078 185.313C301.844 179.08 307.782 175.373 311.159 176.863L288.735 161.026V161.033C285.432 159.111 279.185 162.833 276.321 169.283L256.886 213.062C255.53 216.116 253.183 218.89 250.611 220.477L213.775 243.21C207.299 247.207 203.99 257.028 208.173 259.827L229.522 274.123C227.837 270.186 231.052 262.624 236.534 259.24L273.369 236.508C275.531 235.174 277.535 233 278.924 230.525L255.91 214.976C256.26 214.387 256.602 213.79 256.876 213.17L276.007 170.077Z" fill="#F15A29"/>
<path fill-rule="evenodd" clip-rule="evenodd" d="M344.6 182.251L318.33 190.408L326.098 207.447C327.008 209.447 329.047 210.177 331.544 209.4L367.358 198.28C368.952 197.785 370.257 197.892 371.236 198.444L349.01 182.802C347.994 181.94 346.508 181.659 344.6 182.251Z" fill="#D16F13"/>
<path d="M210 403.328L218.704 400.001C219.312 399.769 220.092 399.731 220.792 399.899L230.81 402.306C232.286 402.66 233.739 402.079 233.844 401.262L233.846 401.263L233.847 401.242C233.852 401.202 233.855 401.163 233.852 401.123L234.079 395.351L230.552 394.047C230.631 393.884 230.762 393.731 230.95 393.598L237.537 388.927C237.888 388.678 238.034 388.386 238.021 388.101H238.022L238.262 382.231C238.262 382.231 233.841 385.324 232.013 386.628L225.114 386.388C224.37 386.362 223.677 386.125 223.262 385.756L217.315 380.461C216.27 379.532 213.893 379.648 213.292 380.66L209.878 386.414C209.64 386.815 209.07 387.115 208.353 387.211L205.485 387.602L205.488 387.557L199.477 383.947L196.691 383.78L196.447 389.759C196.447 389.76 196.447 389.762 196.447 389.763L196.446 389.786H196.447C196.425 390.186 196.711 390.603 197.356 390.899L205.915 394.827C206.513 395.102 206.853 395.522 206.826 395.952L206.429 402.111C206.36 403.193 208.469 403.912 210 403.328Z" fill="#075252"/>
<path d="M220.772 399.888L230.634 402.257L230.911 394.175L230.531 394.034C230.611 393.873 230.742 393.718 230.929 393.586L230.931 393.584L230.957 392.831L221.134 386.586L220.338 399.817C220.484 399.834 220.631 399.852 220.772 399.888Z" fill="#007A7A"/>
<path d="M196.459 389.768V389.791H196.461C196.439 390.191 196.726 390.608 197.369 390.904L204.942 394.379L205.216 387.39L199.49 383.952L196.704 383.785L196.461 389.763C196.459 389.767 196.459 389.768 196.459 389.768Z" fill="#075252"/>
<path d="M231.052 396.314L221.034 393.908C220.336 393.74 219.555 393.778 218.946 394.01L210.243 397.336C208.713 397.921 206.603 397.201 206.673 396.118L207.069 389.96C207.097 389.531 206.757 389.109 206.159 388.835L197.6 384.906C196.095 384.216 196.528 382.862 198.332 382.617L208.594 381.217C209.311 381.119 209.881 380.821 210.119 380.418L213.533 374.664C214.133 373.654 216.51 373.536 217.556 374.466L223.503 379.76C223.917 380.13 224.61 380.366 225.355 380.392L236.025 380.763C237.9 380.829 238.937 382.11 237.778 382.931L231.191 387.603C230.732 387.928 230.589 388.372 230.811 388.79L233.991 394.773C234.55 395.828 232.813 396.736 231.052 396.314Z" fill="#009C9C"/>
<path d="M229.128 394.136L220.887 392.156C220.312 392.019 219.669 392.049 219.17 392.24L212.01 394.976C210.752 395.457 209.015 394.864 209.073 393.974L209.399 388.907C209.422 388.553 209.141 388.208 208.65 387.982L201.61 384.75C200.372 384.182 200.729 383.07 202.213 382.867L210.656 381.715C211.244 381.634 211.714 381.39 211.911 381.059L214.719 376.325C215.213 375.493 217.168 375.397 218.028 376.163L222.92 380.519C223.262 380.822 223.832 381.016 224.445 381.038L233.222 381.343C234.765 381.396 235.617 382.45 234.664 383.126L229.245 386.97C228.867 387.239 228.749 387.604 228.932 387.947L231.548 392.869C232.005 393.736 230.576 394.484 229.128 394.136Z" fill="#009C9C"/>
<path d="M202.357 385.099L210.195 384.03C210.784 383.949 211.253 383.703 211.45 383.374L214.259 378.64C214.753 377.807 216.708 377.711 217.568 378.476L222.459 382.832C222.801 383.136 223.37 383.331 223.984 383.352L232.761 383.658C233.106 383.67 233.414 383.734 233.676 383.83L234.663 383.131C235.616 382.455 234.763 381.401 233.22 381.348L224.443 381.042C223.83 381.021 223.261 380.827 222.918 380.523L218.027 376.168C217.167 375.402 215.21 375.498 214.718 376.33L211.909 381.062C211.714 381.394 211.244 381.638 210.654 381.719L202.211 382.87C200.727 383.073 200.37 384.186 201.609 384.754L202.357 385.099ZM230.535 394.149C231.332 393.959 231.846 393.443 231.544 392.876L229.403 388.845L228.929 387.952C228.844 387.79 228.829 387.625 228.871 387.467L228.868 387.462C228.868 387.462 227.721 388.821 228.432 390.175C228.443 390.195 228.45 390.208 228.458 390.225C228.464 390.237 228.463 390.251 228.47 390.263L230.535 394.149Z" fill="#009C9C"/>
<path d="M230.451 394.339L230.39 394.228L228.304 390.275C228.304 390.28 228.295 390.271 228.284 390.243C227.534 388.816 228.695 387.414 228.745 387.356L228.885 387.19L229.048 387.433L229.032 387.51C228.998 387.634 229.012 387.758 229.074 387.875L231.691 392.799C231.819 393.041 231.833 393.295 231.726 393.53C231.564 393.889 231.143 394.174 230.573 394.312L230.451 394.339ZM228.605 390.147L230.619 393.957C231.023 393.838 231.319 393.632 231.426 393.396C231.49 393.254 231.48 393.107 231.398 392.954L228.783 388.031C228.768 388.002 228.754 387.975 228.743 387.944C228.475 388.417 228.141 389.266 228.579 390.098L228.452 390.213L228.605 390.147ZM202.332 385.269L201.539 384.908C200.947 384.634 200.634 384.205 200.7 383.758C200.779 383.225 201.35 382.824 202.188 382.708L210.631 381.557C211.163 381.485 211.598 381.263 211.766 380.979L214.575 376.247C214.855 375.774 215.553 375.48 216.394 375.48C217.098 375.48 217.732 375.687 218.135 376.044L223.027 380.399C223.339 380.679 223.871 380.857 224.448 380.877L233.225 381.182C234.207 381.216 235.015 381.657 235.192 382.25C235.303 382.621 235.145 382.99 234.757 383.265L233.701 384.014L233.62 383.984C233.354 383.886 233.065 383.831 232.755 383.822L223.978 383.517C223.329 383.494 222.722 383.285 222.351 382.955L217.46 378.599C217.121 378.299 216.552 378.119 215.938 378.119C215.221 378.119 214.619 378.355 214.401 378.723L211.592 383.456C211.369 383.83 210.857 384.104 210.22 384.192L202.332 385.269ZM216.395 375.812C215.68 375.812 215.076 376.048 214.858 376.416L212.049 381.149C211.827 381.523 211.314 381.798 210.677 381.885L202.234 383.036C201.557 383.129 201.083 383.43 201.028 383.805C200.985 384.1 201.228 384.399 201.677 384.607L202.383 384.929L210.174 383.866C210.706 383.795 211.141 383.573 211.308 383.289L214.117 378.557C214.398 378.083 215.096 377.79 215.936 377.79C216.641 377.79 217.275 377.996 217.678 378.354L222.569 382.709C222.885 382.99 223.416 383.169 223.99 383.187L232.767 383.492C233.08 383.505 233.376 383.555 233.652 383.648L234.568 382.998C234.759 382.862 234.968 382.64 234.879 382.344C234.763 381.957 234.154 381.546 233.214 381.514L224.437 381.208C223.786 381.184 223.178 380.975 222.81 380.647L217.92 376.291C217.58 375.992 217.01 375.812 216.395 375.812Z" fill="#009C9C"/>
<path fill-rule="evenodd" clip-rule="evenodd" d="M230.631 402.256L230.837 396.263L231.05 396.315C232.476 396.658 233.886 396.127 234.074 395.354L233.841 401.266L233.839 401.264C233.735 402.081 232.281 402.662 230.805 402.308L220.786 399.901C220.088 399.733 219.307 399.771 218.699 400.003L209.995 403.33C208.466 403.914 206.355 403.195 206.426 402.113L206.781 396.588C207.232 397.393 208.945 397.832 210.239 397.338L218.943 394.011C219.454 393.816 220.087 393.758 220.692 393.843L220.332 399.817C220.478 399.834 220.625 399.853 220.767 399.887L230.631 402.256Z" fill="#075252"/>
<path fill-rule="evenodd" clip-rule="evenodd" d="M237.536 388.926L232.703 392.352L230.813 388.792C230.592 388.374 230.733 387.929 231.192 387.604L237.78 382.933C238.072 382.725 238.226 382.487 238.26 382.247L238.021 388.099C238.033 388.386 237.886 388.677 237.536 388.926Z" fill="#007A7A"/>
<path d="M329.438 390.057C328.979 389.817 283.608 365.301 293.351 304.328L299.373 305.293C290.317 361.974 331.845 384.424 332.264 384.645L329.438 390.057Z" fill="#F7941D"/>
<path d="M393.727 345.784L407.968 340.342C408.962 339.961 410.238 339.899 411.383 340.174L427.774 344.111C430.189 344.691 432.566 343.74 432.737 342.404L432.739 342.406L432.74 342.372C432.746 342.308 432.752 342.244 432.748 342.178L433.12 332.733L427.35 330.598C427.479 330.333 427.694 330.082 428.001 329.864L438.778 322.22C439.353 321.813 439.593 321.336 439.568 320.868H439.57L439.962 311.265C439.962 311.265 432.729 316.324 429.739 318.46L418.452 318.066C417.234 318.023 416.1 317.637 415.421 317.033L405.692 308.37C403.982 306.847 400.093 307.038 399.111 308.694L393.526 318.107C393.135 318.765 392.202 319.252 391.03 319.413L386.338 320.052L386.344 319.981L376.508 314.074L371.951 313.802L371.553 323.584C371.553 323.585 371.553 323.588 371.553 323.59L371.551 323.626H371.553C371.516 324.281 371.986 324.964 373.039 325.448L387.042 331.873C388.02 332.322 388.576 333.009 388.532 333.713L387.884 343.79C387.771 345.563 391.223 346.74 393.727 345.784Z" fill="#075252"/>
<path d="M411.35 340.154L427.485 344.03L427.939 330.807L427.319 330.578C427.447 330.312 427.663 330.062 427.97 329.843L427.973 329.842L428.015 328.61L411.942 318.39L410.64 340.038C410.878 340.066 411.117 340.098 411.35 340.154Z" fill="#007A7A"/>
<path d="M371.572 323.601L371.571 323.638H371.574C371.537 324.293 372.007 324.975 373.061 325.459L385.448 331.144L385.897 319.71L376.528 314.084L371.97 313.812L371.572 323.594C371.572 323.597 371.572 323.598 371.572 323.601Z" fill="#075252"/>
<path d="M428.171 334.309L411.781 330.372C410.637 330.097 409.359 330.16 408.365 330.54L394.125 335.982C391.621 336.939 388.169 335.761 388.283 333.99L388.931 323.912C388.977 323.209 388.42 322.522 387.443 322.073L373.44 315.647C370.979 314.517 371.687 312.304 374.639 311.901L391.43 309.611C392.601 309.451 393.535 308.964 393.925 308.306L399.51 298.892C400.492 297.237 404.382 297.047 406.092 298.569L415.82 307.231C416.499 307.835 417.633 308.222 418.852 308.264L436.306 308.873C439.374 308.98 441.07 311.076 439.176 312.42L428.399 320.064C427.647 320.598 427.414 321.325 427.776 322.007L432.978 331.796C433.894 333.515 431.053 335.001 428.171 334.309Z" fill="#009C9C"/>
<path fill-rule="evenodd" clip-rule="evenodd" d="M427.484 344.03L427.821 334.223L428.171 334.307C430.504 334.867 432.812 334 433.12 332.734L432.738 342.406L432.737 342.404C432.566 343.74 430.187 344.693 427.773 344.112L411.383 340.174C410.239 339.899 408.961 339.961 407.967 340.342L393.727 345.784C391.223 346.741 387.771 345.564 387.885 343.792L388.466 334.753C389.204 336.067 392.005 336.788 394.125 335.978L408.365 330.536C409.201 330.215 410.238 330.121 411.226 330.263L410.637 340.036C410.877 340.064 411.118 340.097 411.349 340.152L427.484 344.03Z" fill="#075252"/>
<path fill-rule="evenodd" clip-rule="evenodd" d="M438.779 322.222L430.873 327.829L427.778 322.005C427.415 321.321 427.646 320.594 428.4 320.061L439.177 312.417C439.658 312.077 439.908 311.689 439.963 311.297L439.569 320.87C439.592 321.338 439.353 321.814 438.779 322.222Z" fill="#007A7A"/>
<path d="M282.166 417.738C286.999 407.94 296.627 411.12 322.084 399.464C347.549 387.81 344.205 381.752 362.007 381.19C379.807 380.626 421.203 397.313 422.342 408.055C423.484 418.796 382.8 416.595 360.484 426.811C338.169 437.031 333.082 460.182 314.967 457.21C296.854 454.239 277.336 427.536 282.166 417.738Z" fill="#303033"/>
<path d="M421.876 391.255C431.355 404.111 420.571 411.835 420.571 411.835L408.557 400.069L416.211 393.771C416.211 393.771 419.641 388.23 421.876 391.255Z" fill="#303033"/>
<path d="M285.903 401.035C275.502 412.198 283.225 428.942 283.225 428.942L293.371 416.662C293.371 416.662 296.066 406.085 285.903 401.035Z" fill="#303033"/>
<path d="M290.66 400.51L288.937 398.693L289.192 396.017C289.192 396.017 301.918 394.336 304.966 394.223L306.378 395.708C299.434 397.89 294.371 398.952 290.66 400.51Z" fill="#303033"/>
<path d="M290.913 397.832L289.19 396.016C291.124 394.736 293.522 393.663 296.343 392.877C299.169 392.092 302.171 391.66 305.218 391.547L306.63 393.033C299.687 395.214 294.625 396.277 290.913 397.832Z" fill="#535359"/>
<path d="M337.925 381.308L335.65 380.178L335.904 377.502C337.864 376.102 344.171 373.018 346.777 372.215L349.52 373.578C346.112 375.328 343.175 377.924 337.925 381.308Z" fill="#303033"/>
<path d="M338.179 378.632L335.904 377.501C336.758 375.827 338.152 374.244 340.11 372.844C342.062 371.438 344.425 370.339 347.033 369.539L349.776 370.901C346.368 372.652 343.431 375.246 338.179 378.632Z" fill="#535359"/>
<path d="M283.41 404.622C288.242 394.824 297.87 398.005 323.327 386.346C348.792 374.692 345.448 368.634 363.251 368.072C375.376 367.689 398.455 375.31 412.294 383.605C418.77 387.485 423.223 391.513 423.585 394.938C424.728 405.68 384.043 403.478 361.727 413.695C339.413 423.911 334.326 447.064 316.211 444.092C298.099 441.123 278.581 414.42 283.41 404.622Z" fill="#535359"/>
<path d="M352.352 390.733C360.019 396.193 373.178 397.445 381.737 393.526C390.293 389.61 391.014 382.005 383.349 376.544C375.68 371.083 362.524 369.828 353.964 373.746C345.406 377.666 344.685 385.272 352.352 390.733Z" fill="#45454A"/>
<path d="M291.5 418.299C299.169 423.76 312.327 425.011 320.884 421.094C329.444 417.177 330.164 409.572 322.496 404.11C314.829 398.648 301.673 397.394 293.114 401.315C284.555 405.234 283.833 412.836 291.5 418.299Z" fill="#45454A"/>
<g opacity="0.3">
<g opacity="0.3">
<path opacity="0.3" d="M320.447 410.361C323.608 408.91 323.875 406.109 321.044 404.088C318.215 402.08 313.361 401.618 310.2 403.056C307.042 404.501 306.777 407.307 309.606 409.329C312.436 411.347 317.289 411.808 320.447 410.361Z" fill="#121214"/>
</g>
</g>
<path d="M308.83 402.722L311.585 403.965C314.008 403.217 317.155 403.499 319.424 404.667L322.445 403.951L322.134 407.226C322.009 408.203 321.262 409.128 319.891 409.751C317.087 411.033 312.776 410.623 310.261 408.835C309.034 407.96 308.464 406.914 308.538 405.933L308.525 405.931L308.83 402.722Z" fill="#075252"/>
<path d="M320.193 406.579C322.991 405.292 323.227 402.805 320.721 401.014C318.209 399.226 313.899 398.816 311.091 400.098C308.29 401.381 308.052 403.871 310.564 405.663C313.08 407.448 317.39 407.858 320.193 406.579Z" fill="#009C9C"/>
<path d="M375.634 394.77L385.352 390.323L377.057 384.416L386.319 380.178L377.606 373.976L368.35 378.215L360.057 372.309L350.345 376.756L358.637 382.664L349.383 386.902L358.084 393.1L367.344 388.864L375.634 394.77Z" fill="black"/>
<path d="M350.318 386.984L350.641 383.582L359.566 382.753L351.28 376.847L351.603 373.445L368.285 378.756L385.677 376.686L385.355 380.089L376.103 384.327L384.717 386.823L384.393 390.226L375.667 394.219L367.378 388.316L358.131 392.551L350.318 386.984Z" fill="#D16F13"/>
<path d="M350.64 383.582L359.889 379.349L351.603 373.445L360.323 369.453L368.608 375.354L377.857 371.12L385.677 376.686L376.425 380.921L384.716 386.823L375.988 390.816L367.7 384.918L358.454 389.147L350.64 383.582Z" fill="#F7941D"/>
<g opacity="0.3">
<g opacity="0.3">
<path opacity="0.3" d="M303.893 409.492C307.052 408.043 307.318 405.241 304.488 403.222C301.659 401.215 296.805 400.754 293.643 402.19C290.483 403.634 290.218 406.442 293.048 408.46C295.883 410.481 300.736 410.943 303.893 409.492Z" fill="#121214"/>
</g>
</g>
<path d="M292.275 401.859L295.031 403.102C297.455 402.355 300.604 402.636 302.87 403.804L305.892 403.088L305.581 406.36C305.456 407.337 304.704 408.26 303.34 408.886C300.531 410.167 296.222 409.758 293.706 407.97C292.478 407.096 291.911 406.048 291.986 405.067L291.969 405.065L292.275 401.859Z" fill="#075252"/>
<path d="M303.64 405.712C306.438 404.425 306.674 401.938 304.168 400.149C301.653 398.358 297.342 397.949 294.534 399.233C291.731 400.515 291.495 403.003 294.006 404.796C296.525 406.586 300.834 406.996 303.64 405.712Z" fill="#009C9C"/>
<g opacity="0.3">
<g opacity="0.3">
<path opacity="0.3" d="M303.724 420.132C306.884 418.682 307.149 415.881 304.319 413.864C301.492 411.85 296.639 411.389 293.481 412.834C290.32 414.273 290.053 417.082 292.886 419.102C295.716 421.116 300.57 421.578 303.724 420.132Z" fill="#121214"/>
</g>
</g>
<path d="M292.114 412.499L294.871 413.74C297.294 412.994 300.441 413.275 302.706 414.444L305.731 413.727L305.42 416.998C305.292 417.977 304.545 418.902 303.174 419.525C300.373 420.809 296.057 420.398 293.549 418.609C292.315 417.734 291.748 416.688 291.823 415.705L291.809 415.704L292.114 412.499Z" fill="#075252"/>
<path d="M303.475 416.352C306.273 415.065 306.507 412.581 304.002 410.787C301.494 408.999 297.18 408.59 294.377 409.871C291.569 411.152 291.332 413.643 293.85 415.436C296.36 417.223 300.673 417.634 303.475 416.352Z" fill="#009C9C"/>
<g opacity="0.3">
<g opacity="0.3">
<path opacity="0.3" d="M319.803 421.088C322.959 419.638 323.226 416.837 320.398 414.82C317.564 412.808 312.715 412.347 309.556 413.789C306.393 415.231 306.127 418.037 308.961 420.058C311.793 422.073 316.642 422.536 319.803 421.088Z" fill="#121214"/>
</g>
</g>
<path d="M308.182 413.453L310.94 414.693C313.365 413.948 316.511 414.229 318.783 415.4L321.8 414.681L321.489 417.955C321.366 418.931 320.617 419.854 319.246 420.479C316.444 421.763 312.131 421.354 309.617 419.563C308.388 418.688 307.822 417.641 307.895 416.662L307.877 416.661L308.182 413.453Z" fill="#075252"/>
<path d="M319.546 417.306C322.344 416.02 322.581 413.533 320.074 411.742C317.566 409.953 313.253 409.542 310.445 410.826C307.642 412.111 307.406 414.6 309.917 416.392C312.435 418.178 316.745 418.589 319.546 417.306Z" fill="#009C9C"/>
<path d="M395.387 272.575C390.51 272.575 386.543 268.602 386.543 263.72C386.543 258.838 390.51 254.867 395.387 254.867C400.263 254.867 404.231 258.839 404.231 263.72C404.229 268.602 400.263 272.575 395.387 272.575ZM395.387 259.445C393.033 259.445 391.117 261.363 391.117 263.718C391.117 266.076 393.033 267.993 395.387 267.993C397.741 267.993 399.656 266.076 399.656 263.718C399.655 261.363 397.74 259.445 395.387 259.445Z" fill="#535359"/>
<path d="M188.127 307.026C183.251 307.026 179.283 303.053 179.283 298.171C179.283 293.289 183.251 289.316 188.127 289.316C193.004 289.316 196.971 293.289 196.971 298.171C196.971 303.053 193.004 307.026 188.127 307.026ZM188.127 293.898C185.773 293.898 183.858 295.815 183.858 298.172C183.858 300.53 185.773 302.447 188.127 302.447C190.482 302.447 192.397 300.53 192.397 298.172C192.397 295.815 190.482 293.898 188.127 293.898Z" fill="#535359"/>
<path fill-rule="evenodd" clip-rule="evenodd" d="M229.072 180.977C225.451 180.977 222.516 183.915 222.516 187.541C222.516 191.167 225.451 194.106 229.072 194.106C232.694 194.106 235.629 191.167 235.629 187.541C235.629 183.917 232.694 180.977 229.072 180.977Z" fill="#535359"/>
<path fill-rule="evenodd" clip-rule="evenodd" d="M283.07 356.082C279.449 356.082 276.514 359.021 276.514 362.647C276.514 366.271 279.449 369.211 283.07 369.211C286.692 369.211 289.627 366.272 289.627 362.647C289.627 359.021 286.69 356.082 283.07 356.082Z" fill="#535359"/>
<path d="M190.426 349.501C189.331 349.501 188.274 348.91 187.727 347.877C186.938 346.387 187.506 344.538 188.995 343.75L200.456 337.676C201.944 336.886 203.793 337.456 204.578 338.946C205.366 340.436 204.799 342.284 203.309 343.072L191.848 349.147C191.396 349.386 190.908 349.501 190.426 349.501Z" fill="#535359"/>
<path d="M383.931 193.631C382.836 193.631 381.781 193.04 381.232 192.006C380.444 190.516 381.011 188.667 382.501 187.878L393.96 181.804C395.451 181.016 397.295 181.585 398.082 183.074C398.87 184.564 398.303 186.413 396.813 187.202L385.354 193.276C384.901 193.516 384.412 193.631 383.931 193.631Z" fill="#535359"/>
<path d="M359.834 312.492C359.552 312.492 359.265 312.452 358.98 312.368L349.608 309.638C347.99 309.168 347.062 307.473 347.533 305.854C348.002 304.234 349.69 303.304 351.313 303.774L360.684 306.506C362.302 306.976 363.231 308.67 362.76 310.29C362.372 311.623 361.154 312.492 359.834 312.492Z" fill="#535359"/>
<path d="M192.949 245.131C192.667 245.131 192.38 245.092 192.095 245.009L182.723 242.28C181.105 241.808 180.177 240.115 180.648 238.495C181.118 236.875 182.804 235.946 184.428 236.416L193.8 239.145C195.418 239.617 196.346 241.31 195.875 242.93C195.488 244.264 194.269 245.131 192.949 245.131Z" fill="#535359"/>
<defs>
<filter id="filter0_f_403_2" x="0" y="0" width="603.932" height="632" filterUnits="userSpaceOnUse" color-interpolation-filters="sRGB">
<feFlood flood-opacity="0" result="BackgroundImageFix"/>
<feBlend mode="normal" in="SourceGraphic" in2="BackgroundImageFix" result="shape"/>
<feGaussianBlur stdDeviation="112" result="effect1_foregroundBlur_403_2"/>
</filter>
</defs>
</svg>
