<svg width="632" height="632" viewBox="0 0 632 632" fill="none" xmlns="http://www.w3.org/2000/svg">
<path d="M89.1132 191.9L316.001 60.9069L542.888 191.9V453.888L316.001 584.881L89.1132 453.888V191.9Z" stroke="#282828" stroke-width="2"/>
<path d="M43.336 158.577L316 1.1547L588.664 158.577V473.423L316 630.845L43.336 473.423V158.577Z" stroke="#282828" stroke-width="2"/>
<path d="M134.89 218.044L316.001 113.765L497.112 218.044V426.596L316.001 530.875L134.89 426.596V218.044Z" stroke="#282828" stroke-width="2"/>
<path d="M187.633 247.631L316.001 173.518L444.369 247.631V395.859L316.001 469.972L187.633 395.859V247.631Z" stroke="#282828" stroke-width="2"/>
<path d="M239.378 277.509L315.999 233.271L392.62 277.509V365.983L315.999 410.22L239.378 365.983V277.509Z" stroke="#282828" stroke-width="2"/>
</svg>
