<svg width="986" height="829" viewBox="0 0 986 829" fill="none" xmlns="http://www.w3.org/2000/svg">
<path d="M138.93 140.827L493 -63.8449L847.07 140.827V550.173L493 754.845L138.93 550.173V140.827Z" stroke="#282828" stroke-width="2"/>
<path d="M67.0495 90.0773L493 -155.845L918.951 90.0773V581.923L493 827.845L67.0495 581.923V90.0773Z" stroke="#282828" stroke-width="2"/>
<path d="M210.81 183.077L493 20.1547L775.19 183.077V508.923L493 671.845L210.81 508.923V183.077Z" stroke="#282828" stroke-width="2"/>
<path d="M292.216 230.077L493 114.155L693.784 230.077V461.923L493 577.845L292.216 461.923V230.077Z" stroke="#282828" stroke-width="2"/>
<path d="M373.689 276.327L493.5 207.155L613.311 276.327V414.673L493.5 483.845L373.689 414.673V276.327Z" stroke="#282828" stroke-width="2"/>
</svg>
