<svg width="604" height="632" viewBox="0 0 604 632" fill="none" xmlns="http://www.w3.org/2000/svg">
<path d="M170.325 243.692L302.001 167.669L433.676 243.692V395.738L302.001 471.761L170.325 395.738V243.692Z" stroke="#282828" stroke-width="2"/>
<path d="M143.651 224.577L302 133.155L460.349 224.577V407.423L302 498.845L143.651 407.423V224.577Z" stroke="#282828" stroke-width="2"/>
<path d="M197.227 259.226L301.999 198.736L406.772 259.226V380.207L301.999 440.698L197.227 380.207V259.226Z" stroke="#282828" stroke-width="2"/>
<path d="M227.827 276.684L302.133 233.783L376.438 276.684V362.484L302.133 405.384L227.827 362.484V276.684Z" stroke="#282828" stroke-width="2"/>
<path d="M257.952 294.074L302.135 268.564L346.318 294.074V345.092L302.135 370.601L257.952 345.092V294.074Z" stroke="#282828" stroke-width="2"/>
<g opacity="0.8" filter="url(#filter0_f_517_77)">
<ellipse cx="302.002" cy="316" rx="77.9661" ry="92" fill="#00B4B4"/>
</g>
<path d="M260.529 309.546C263.656 311.353 263.656 314.283 260.529 316.089C257.401 317.896 252.332 317.896 249.208 316.089C246.08 314.283 246.08 311.353 249.208 309.546C252.333 307.739 257.401 307.739 260.529 309.546Z" fill="#535359"/>
<path fill-rule="evenodd" clip-rule="evenodd" d="M363.288 348.254V290.819L302.265 326.724V383.626L363.288 348.254Z" fill="#075252"/>
<path d="M241 290.716V348.151L302.337 383.624V326.722L241 290.716Z" fill="#007A7A"/>
<path d="M241.002 290.717L302.34 326.724L363.287 290.819L301.814 255L241.002 290.717Z" fill="#009C9C"/>
<path fill-rule="evenodd" clip-rule="evenodd" d="M327.939 311.802V368.684L339.155 362.534V305.115L327.939 311.802Z" fill="#D16F13"/>
<path d="M266.172 275.598L328.017 311.801L339.155 305.114L277.178 269.103L266.172 275.598Z" fill="#F7941D"/>
<path fill-rule="evenodd" clip-rule="evenodd" d="M265.833 305.454V362.872L276.708 368.854V311.972L265.833 305.454Z" fill="#D16F13"/>
<path d="M265.833 305.449L276.631 311.967L337.972 275.96L327.304 269.634L265.833 305.449Z" fill="#F7941D"/>
<path fill-rule="evenodd" clip-rule="evenodd" d="M320.25 267.485C310.973 271.955 300.993 286.072 300.993 286.072L310.897 291.786C310.897 291.786 321.261 286.008 329.564 280.975C332.678 279.087 335.429 274.853 334.229 272.359C332.726 269.232 328.717 266.531 324.454 266.531C323.053 266.531 321.625 266.823 320.25 267.485Z" fill="#F15A29"/>
<path d="M320.25 267.485C310.973 271.955 300.993 286.072 300.993 286.072L310.604 291.615C312.101 289.556 321.142 277.442 329.623 273.357C331.141 272.626 332.719 272.359 334.255 272.421C332.773 269.269 328.744 266.533 324.452 266.531C323.052 266.531 321.625 266.823 320.25 267.485Z" fill="#F7941D"/>
<path fill-rule="evenodd" clip-rule="evenodd" d="M280.28 266.956H280.214C275.951 266.956 271.945 269.654 270.439 272.781C269.239 275.275 271.991 279.508 275.104 281.397C283.409 286.432 293.773 292.209 293.773 292.209L303.677 286.497C303.677 286.497 293.696 272.377 284.419 267.911C283.066 267.257 281.661 266.966 280.28 266.956Z" fill="#F15A29"/>
<path d="M270.414 272.848C271.952 272.78 273.532 273.053 275.049 273.784C283.527 277.869 292.571 289.982 294.068 292.039L303.678 286.498C303.678 286.498 293.697 272.378 284.42 267.909C283.044 267.247 281.617 266.956 280.218 266.956C275.927 266.956 271.896 269.693 270.414 272.848Z" fill="#F7941D"/>
<path fill-rule="evenodd" clip-rule="evenodd" d="M308.581 289.681L299.497 295.573C299.497 295.573 315.494 304.782 320.009 307.24C324.524 309.701 328.753 306.726 332.868 303.525C336.983 300.32 331.496 292.254 323.211 289.908C320.848 289.242 318.272 289.029 315.948 289.029C311.876 289.029 308.581 289.681 308.581 289.681Z" fill="#F15A29"/>
<path d="M308.581 289.685L299.497 295.577C299.497 295.577 299.539 295.602 299.552 295.607L299.953 295.348C299.953 295.348 308.086 293.737 314.581 295.577C321.926 297.657 327.056 304.225 325.263 307.922C327.864 307.297 330.387 305.458 332.868 303.529C336.983 300.325 331.496 292.258 323.211 289.912C320.848 289.247 318.272 289.034 315.948 289.034C311.876 289.032 308.581 289.685 308.581 289.685Z" fill="#F7941D"/>
<path fill-rule="evenodd" clip-rule="evenodd" d="M302.6 286.774H302.557H302.51C301.54 286.786 300.572 287.142 299.809 287.843L296.984 290.436L302.121 294.152L307.847 290.022L305.197 287.752C304.449 287.11 303.525 286.784 302.6 286.774Z" fill="#F15A29"/>
<path fill-rule="evenodd" clip-rule="evenodd" d="M280.786 289.908C272.5 292.254 267.014 300.32 271.128 303.525C275.243 306.726 279.472 309.701 283.987 307.24C288.502 304.782 304.5 295.573 304.5 295.573L295.415 289.681C295.415 289.681 292.12 289.029 288.049 289.029C285.724 289.029 283.147 289.242 280.786 289.908Z" fill="#F15A29"/>
<path d="M280.786 289.909C272.5 292.255 267.014 300.321 271.128 303.526C273.61 305.455 276.132 307.294 278.733 307.919C276.94 304.222 282.07 297.654 289.415 295.573C295.91 293.733 304.043 295.344 304.043 295.344L304.445 295.603C304.457 295.598 304.5 295.573 304.5 295.573L295.415 289.681C295.415 289.681 292.12 289.029 288.049 289.029C285.724 289.03 283.147 289.243 280.786 289.909Z" fill="#F7941D"/>
<defs>
<filter id="filter0_f_517_77" x="0.0356445" y="0" width="603.932" height="632" filterUnits="userSpaceOnUse" color-interpolation-filters="sRGB">
<feFlood flood-opacity="0" result="BackgroundImageFix"/>
<feBlend mode="normal" in="SourceGraphic" in2="BackgroundImageFix" result="shape"/>
<feGaussianBlur stdDeviation="112" result="effect1_foregroundBlur_517_77"/>
</filter>
</defs>
</svg>
