<svg width="24" height="159" viewBox="0 0 24 159" fill="none" xmlns="http://www.w3.org/2000/svg">
<circle r="3" transform="matrix(-1 0 0 1 12 117)" fill="#24B7AF"/>
<circle r="3" transform="matrix(-1 0 0 1 12 81)" fill="#24B7AF"/>
<circle r="3" transform="matrix(-1 0 0 1 12 99)" fill="#24B7AF"/>
<circle r="3" transform="matrix(-1 0 0 1 12 63)" fill="#24B7AF"/>
<circle r="3" transform="matrix(-1 0 0 1 12 45)" fill="#24B7AF"/>
<rect x="4" y="153" width="16" height="5.33333" fill="white"/>
<rect x="14.6653" y="147.665" width="5.33333" height="5.33333" transform="rotate(90 14.6653 147.665)" fill="white"/>
<rect x="14.6653" y="137" width="5.33333" height="5.33333" transform="rotate(90 14.6653 137)" fill="white"/>
<rect x="20" y="142.335" width="5.33333" height="5.33333" transform="rotate(90 20 142.335)" fill="white"/>
<rect x="9.33472" y="142.335" width="5.33333" height="5.33333" transform="rotate(90 9.33472 142.335)" fill="white"/>
<rect x="4.80005" y="14.4" width="14.4" height="4.8" fill="#F15A29"/>
<rect x="14.3999" width="14.4" height="4.8" transform="rotate(90 14.3999 0)" fill="#F15A29"/>
<rect y="4.80005" width="24" height="4.8" fill="#F15A29"/>
<rect x="4.80005" y="6.71997" width="7.68" height="4.8" transform="rotate(90 4.80005 6.71997)" fill="#F15A29"/>
<rect x="24" y="6.71997" width="7.68" height="4.8" transform="rotate(90 24 6.71997)" fill="#F15A29"/>
<rect x="24" y="19.2" width="4.8" height="4.8" transform="rotate(90 24 19.2)" fill="#F15A29"/>
<rect x="4.80005" y="19.2" width="4.8" height="4.8" transform="rotate(90 4.80005 19.2)" fill="#F15A29"/>
</svg>
