<svg width="96" height="46" viewBox="0 0 96 46" fill="none" xmlns="http://www.w3.org/2000/svg">
  <path d="M37.3306 10.5081H23.9445V45.9963L15.221 37.3152V1.90552H28.6071L37.3306 10.5081ZM0 1.90552H13.3109V10.5118H8.71975L0 1.90552Z" fill="#F7941D"/>
  <path d="M43.9859 0L52.7057 8.68115V46H50.8519L42.1472 37.3937H43.9859V0Z" fill="#F7941D"/>
  <path d="M87.3558 0L96.0003 8.68115L81.4674 45.9963H79.7866L71.0668 37.3151H72.7476L87.3558 0ZM74.5826 27.4922L71.9054 34.3465L64.1031 14.3151L63.415 12.4097L58.5945 0L67.239 8.68115L74.5826 27.4922Z" fill="#F7941D"/>
  <path d="M23.9445 10.4444L15.3676 1.90552H15.2209V37.3189L23.9445 46.0001V10.5118V10.4444Z" fill="#F15A29"/>
  <path d="M74.7173 27.4922L72.04 34.3465L64.2377 14.3188L63.5496 12.4134L58.7329 0L67.3737 8.68115L74.7173 27.4922Z" fill="#F15A29"/>
</svg>
